<svg id="Layer_1" data-name="Layer 1" xmlns="http://www.w3.org/2000/svg" viewBox="0 0 85.28 95.69"><defs><style>.cls-1{fill:#409384;}.cls-2{fill:#fff;}</style></defs><path class="cls-1" d="M114.64,91.42V52.58a9,9,0,0,0-4.5-7.8L76.5,25.36a9,9,0,0,0-9,0L33.86,44.78a9,9,0,0,0-4.5,7.8V91.42a9,9,0,0,0,4.5,7.8L67.5,118.64a9,9,0,0,0,9,0l33.64-19.42A9,9,0,0,0,114.64,91.42Z" transform="translate(-29.36 -24.16)"/><path class="cls-2" d="M49.62,88.3l.31-.35.37-.42.21-.25c.16-.2.33-.4.48-.61l.09-.11A24,24,0,0,0,54.62,64a20,20,0,0,1-9.13-.35,15.9,15.9,0,0,1-2.27,19.62c-.17.17-.36.32-.54.49h0a32.19,32.19,0,0,0,4.06,7.21A22.83,22.83,0,0,0,49,89l.42-.45Z" transform="translate(-29.36 -24.16)"/><path class="cls-2" d="M69,44.15c0,.11.06.21.1.32s.09.29.14.44l.18.53.12.31c.09.24.18.48.28.72a.69.69,0,0,0,0,.13A24.07,24.07,0,0,0,87.66,61a20.2,20.2,0,0,1,4.87-7.73A15.9,15.9,0,0,1,76.67,41.47c-.06-.24-.1-.48-.15-.71h0v0a31.45,31.45,0,0,0-8.28-.08,24.75,24.75,0,0,0,.57,2.9C68.87,43.76,68.93,44,69,44.15Z" transform="translate(-29.36 -24.16)"/><path class="cls-2" d="M101.33,60.28a32.19,32.19,0,0,0-4.06-7.21A22.83,22.83,0,0,0,95,55l-.42.45-.23.23-.31.35-.37.42-.21.25c-.16.2-.33.4-.48.61l-.09.11a24,24,0,0,0-3.54,22.61,20,20,0,0,1,9.13.35,15.9,15.9,0,0,1,2.27-19.62c.17-.17.36-.32.54-.49h0Z" transform="translate(-29.36 -24.16)"/><path class="cls-2" d="M96.51,83.07l-.1,0c-.23,0-.46-.08-.69-.12l-.38-.06-.3,0a24.07,24.07,0,0,0-21.32,8.25A20,20,0,0,1,78,99.16,15.91,15.91,0,0,1,96.1,91.31l.7.23h0A31.57,31.57,0,0,0,101,84.42a23.06,23.06,0,0,0-2.8-1C97.65,83.3,97.08,83.18,96.51,83.07Z" transform="translate(-29.36 -24.16)"/><path class="cls-2" d="M75,99.84c0-.1-.06-.2-.1-.31s-.09-.29-.14-.44l-.18-.53-.12-.31c-.09-.24-.18-.48-.28-.72a.69.69,0,0,0,0-.13A24.07,24.07,0,0,0,56.34,83a20.2,20.2,0,0,1-4.87,7.73,15.9,15.9,0,0,1,15.86,11.77c.06.24.1.48.15.71h0v0a31.45,31.45,0,0,0,8.28.08,24.75,24.75,0,0,0-.57-2.9C75.13,100.24,75.07,100,75,99.84Z" transform="translate(-29.36 -24.16)"/><path class="cls-2" d="M47.49,60.93l.1,0,.69.12.38.06.3,0a24.07,24.07,0,0,0,21.32-8.25A20,20,0,0,1,66,44.84,15.91,15.91,0,0,1,47.9,52.69l-.7-.23h0A31.57,31.57,0,0,0,43,59.58a23.06,23.06,0,0,0,2.8,1C46.35,60.7,46.92,60.82,47.49,60.93Z" transform="translate(-29.36 -24.16)"/></svg>