<?xml version="1.0" encoding="utf-8"?>
<svg version="1.1" id="Layer_1" xmlns="http://www.w3.org/2000/svg" xmlns:xlink="http://www.w3.org/1999/xlink" x="0px" y="0px"
	 viewBox="0 0 84.8 53" style="enable-background:new 0 0 84.8 53;" xml:space="preserve">
<style type="text/css">
	.st0{fill:#409385;}
	.st1{fill:#FFFFFF;}
</style>
<path class="st0" d="M82.4,22L44.8,0.6c-0.6-0.4-1.3-0.6-2-0.6l0,0c-1-0.1-2.1,0.1-3,0.7L2.5,22.4c-3.3,1.8-3.3,7,0,8.7l37.6,21.3
	c0.8,0.5,1.8,0.7,2.7,0.6l0,0c0.8,0,1.6-0.3,2.3-0.7l37.3-21.7C85.7,28.9,85.7,23.7,82.4,22z"/>
<path class="st1" d="M40.3,18.5C40.4,18.6,40.3,18.6,40.3,18.5C40.2,18.5,40.3,18.5,40.3,18.5L40.3,18.5z M27.6,17.9
	c0,0.1-0.2,0-0.2,0s0.2-0.1,0.2-0.2c-0.1,0,0-0.1,0-0.1c-0.2,0-0.6,0-0.6,0.2c0.1,0,0.3,0.2,0.1,0.2c-0.1,0-0.4,0-0.3,0.1
	c0.2,0.1,0.4,0.2,0.5,0.3c0.1,0,0.4-0.3,0.3-0.4C27.6,18,27.8,18,27.6,17.9z M40.1,18.6C40.2,18.7,40.2,18.6,40.1,18.6
	C40.2,18.5,40.1,18.5,40.1,18.6z M30.4,18.7c0.2,0.2,0.3-0.1,0.3-0.3C30.6,18.4,30.3,18.6,30.4,18.7z M31.1,17.4c0-0.1-0.2,0-0.3,0
	c-0.3-0.2-0.5-0.4-0.8,0c-0.1-0.1-0.2,0.2-0.2,0c0.1-0.2-0.1-0.3-0.2-0.4c-0.2,0-0.3,0.2-0.5,0.2c0.1-0.2-0.2-0.1-0.4,0
	c-0.3,0.3-0.5,0.8,0.1,0.8c-0.1,0.1-0.5,0-0.1,0.2c0.1,0,0.2-0.1,0.2,0c0.2,0,0.6-0.1,0.8-0.1c-0.3-0.2,0.2,0,0.3-0.2
	c0.2,0.1,0,0.1,0,0.1c0-0.1,0.1,0,0.1,0c0.1,0,0.1,0,0.1,0.1c0,0,0.3,0,0.3,0.1c-0.1,0.1-0.1,0.3,0,0.1c0.1,0,0.6,0.2,0.4,0.4
	c-0.1,0.2-0.3,0.3-0.1,0.4c-0.1,0.1-0.9,0.2-0.5,0.5c0.1,0,0.3-0.2,0.4-0.1c0-0.1,0-0.1,0.1,0c0,0,0.1,0,0.2,0.1s0.3,0,0.1,0.1
	c0.2,0.1,0.5,0.2,0.8,0.1c0.1-0.2-0.4-0.1-0.4-0.3c0,0,0.2,0.1,0.1,0c0.1,0,0.5,0.3,0.4,0.1c0.1,0,0-0.1,0-0.2c0.1,0.1,0.1,0,0-0.1
	c-0.1,0-0.1-0.1-0.2-0.2c-0.1,0-0.1,0-0.1,0s0-0.3-0.1-0.1c-0.1-0.1,0-0.1,0.1-0.1c-0.1-0.1-0.1-0.2,0.1-0.2
	c0.1,0.2,0.4-0.2,0.2,0.2c0.2,0.2,0.3,0.2,0.3-0.1c0.1,0,0.4-0.1,0.1-0.2c0.1,0,0.3-0.1,0.1-0.2c-0.1,0-0.2,0.1-0.2,0.1
	c0.1-0.2,0,0-0.2-0.1c-0.1-0.1-0.8-0.1-0.5-0.2c-0.1-0.2,0.1-0.1,0.1-0.1c0-0.1-0.2,0-0.2,0c0.1-0.1,0.3-0.2,0.1-0.2
	c-0.1,0.1-0.1,0.2-0.2,0.1C31.8,17.5,31.3,17.4,31.1,17.4C31,17.8,31,17.6,31.1,17.4z M26.8,17.1C26.6,17.2,26.8,17.1,26.8,17.1
	c0,0.1,0.1,0.1,0.1,0.1c0.1-0.1,0.4-0.1,0.2,0c0,0-0.2,0.1,0,0.1c-0.1,0-0.1,0.1,0,0.1c0.1-0.1,0.2-0.1,0.3-0.1h-0.1
	c0-0.1,0-0.1,0.1-0.1c0-0.4-0.1-0.4-0.5-0.3C26.8,16.9,27,17,27,17h-0.1l0.1,0.1C27,17.1,26.7,16.9,26.8,17.1
	C26.7,17.1,26.8,17,26.8,17.1C26.9,17.1,26.9,17.1,26.8,17.1z M26.9,19l0.1-0.1c0.1,0.1,0-0.1,0,0c0.3-0.2-0.4-0.2-0.4-0.3
	c0.1-0.3-0.4-0.8-0.5-0.5c0,0.1,0.2,0.5,0,0.3c0-0.2-0.2-0.4-0.4-0.3l0.1,0.1h-0.1c-0.1,0.1-0.1,0.1-0.1,0c-0.2-0.2-0.3,0.1-0.4,0.1
	c0.3-0.5-0.7,0.2-0.5,0.2c-0.1,0.1-0.2,0.3,0,0.2c-0.1,0.1,0.2,0,0.3,0c0,0-0.3,0.1-0.3,0.2c0.2,0.2,0.6-0.1,0.9,0
	c0.1,0.1-0.2,0.1-0.3,0.1c-0.6,0.1-0.4,0.4,0.1,0.3c0.1,0,0,0.2,0.2,0.1c0.3-0.1,0.6-0.2,0.8-0.4c0,0.1,0.5,0.2,0.6,0
	C27,18.8,26.9,18.9,26.9,19C26.8,19,26.7,19,26.9,19z M27.3,19.1C27.3,19.1,27.4,19.1,27.3,19.1c0.1,0.1,0.1,0,0.2,0
	c0.3,0.2,0.6-0.2,0.2-0.3C27.4,18.7,27.5,19,27.3,19.1z M40.2,18.4C40.1,18.5,40.3,18.4,40.2,18.4C40.4,18.2,40.1,18.4,40.2,18.4z
	 M29.9,19.8c-0.3,0-0.1-0.1-0.4-0.2c-0.1,0-0.2-0.1-0.2,0c0,0-0.1,0,0,0c0.1-0.3-0.2,0-0.1,0.1c0,0.2,0,0.3-0.1,0.4l0.2-0.1
	c0,0,0,0.2,0.1,0.1s0.2-0.3,0.3-0.3C29.6,20,29.9,20,29.9,19.8z M28.2,17.1c0,0.1,0.1-0.1,0.2-0.1c0.1,0.1,0.2-0.1,0.3,0v-0.1
	c0,0.2,0.3,0.1,0.3,0c0.2,0,0.4,0,0.4-0.2c0.2,0.2,0.4,0,0.6-0.1h-0.1c0,0,0.1,0,0.1-0.1c-0.2-0.2-0.9,0.1-0.8,0.2
	c-0.1,0-0.3,0-0.3,0.1c-0.2-0.1-0.4-0.1-0.2-0.2c-0.1,0-1.3-0.2-0.9,0.2C28.1,16.8,28.2,16.5,28.2,17.1z M30.7,18.5
	c0,0.1,0.2,0.1,0.2,0C30.9,18.4,30.7,18.4,30.7,18.5z M28.6,14.7c-0.5,0.5,0.4,0,0.5,0c0,0.1-0.5,0.2-0.5,0.3
	c0.2,0.1,0.5-0.2,0.6-0.2c-0.1,0.1-0.4,0.3,0,0.2c0.1,0,0.1-0.2,0.2-0.2c-0.1,0.1,0.1,0,0.1,0c-0.3,0.4,0.5-0.2,0.6-0.3
	c0,0-0.1,0.2-0.2,0.2c0,0,0.2,0,0.1,0c-0.1,0.2-1.1,0.2-0.5,0.5c-0.2-0.1-0.5-0.2-0.7,0c-0.1,0.2,0.5,0.2,0.4,0.4
	c-0.1-0.1-0.9,0.3-0.4,0.3c0.1,0,0.2-0.2,0.2-0.2c-0.2,0.5,0.2,0.3,0.3,0.1c0,0-0.2,0.3-0.3,0.3c-0.1-0.1-0.3-0.2-0.4,0
	c0,0.1,0.1,0.1,0.1,0.1c0,0.1-0.3,0.2-0.3,0.2c0,0.2,0.1,0,0.1,0c0.1,0.1,0.2,0,0.3,0c0.2,0,0.8-0.4,0.8-0.1c0.1,0,0.7-0.4,0.3-0.4
	c-0.2,0.1,0-0.2,0.1-0.2c0.1-0.1-0.1-0.1,0-0.1s0.5-0.2,0.2-0.3c0.3-0.1,0.3-0.2,0-0.2c0.4,0,0.2-0.2,0-0.1c0.1,0,0.6-0.1,0.5-0.3
	c0.2,0.1,0.6-0.3,0.2-0.2c0.3-0.1,0.8-0.5,0.9-0.7c-0.2,0-1.2,0.6-0.3,0.1c-0.6,0.1,0.8-0.2,0.7-0.5c0-0.1-0.4,0-0.5,0
	s-0.4,0.2-0.4,0.2c0.7-0.4-0.9,0-0.7,0.2c-0.1-0.1-0.9-0.1-0.4,0.1c-0.4-0.1-1.4,0.3-0.5,0.4c-0.2,0.1-0.6-0.1-0.9-0.1
	c0.1,0.1,0,0.1-0.1,0.1C29.2,14.4,28.6,14.5,28.6,14.7C27.9,14.8,28.3,15,28.6,14.7z M27,16.5c0-0.1-0.3,0-0.1,0.1
	C26.9,16.5,27,16.5,27,16.5z M30,20.4c0,0,0.1-0.2,0-0.2C29.9,20.2,29.9,20.4,30,20.4z M39.9,19.9c-0.1,0.2,0.4-0.2,0.5-0.2
	c0-0.1,0-0.2,0-0.3c0.2-0.1,0.1-0.4-0.1-0.3c0.1-0.1-0.2,0.1-0.2,0.1c0.1,0,0.1,0,0,0.1c-0.2-0.1-0.1,0.2-0.2,0.2H40
	c-0.1,0.1-0.2,0.2,0,0.1C39.9,19.7,39.7,19.9,39.9,19.9C39.8,19.9,39.8,19.9,39.9,19.9z M29.5,20.3c0,0.2,0.3-0.1,0.3-0.2
	C29.7,20.1,29.4,20.2,29.5,20.3z M28,17.1c0-0.3-0.4,0-0.4,0.1C27.7,17.3,28.1,17.3,28,17.1z M26.4,16.2c0,0,0.2-0.1,0.1,0
	c0,0,0.1-0.1,0.1,0s-0.2,0-0.2,0.1s0.3-0.1,0.5,0c0.1,0.1,0.3,0.2,0.3-0.1c-0.1-0.1,0-0.1-0.1-0.2c-0.2,0-0.2-0.1-0.4,0
	C26.7,16,26.4,16,26.4,16.2C26.3,16.2,26.4,16.1,26.4,16.2C26.5,16.2,26.4,16.2,26.4,16.2z M26.5,16.8c0.2,0-0.1-0.2-0.2-0.2
	C26.3,16.7,26.4,16.8,26.5,16.8z M27.3,15.6c-0.1-0.1-0.2,0-0.2,0.1C27.2,15.8,27.3,15.7,27.3,15.6z M27.5,16.2
	c-0.1,0.1-0.2,0.1,0,0.1S28,16,27.6,16C27.4,15.9,27.2,16.2,27.5,16.2z M25.5,16.7c-0.5,0.2,0.3,0.3,0.3,0h-0.1c0,0,0.2-0.1,0.1-0.1
	C25.7,16.6,25.6,16.7,25.5,16.7z M25.7,17.2c0,0.1,0.2,0,0,0.1c0.4,0-0.1,0.2-0.2,0.1c0-0.1-0.2,0-0.1-0.1c-0.1-0.2-0.8,0-0.4,0
	c-0.3,0-0.4,0.3,0,0.1c-0.2,0-0.5,0.3,0,0.1c-0.1,0-0.5,0.3-0.1,0.2l0,0c0.1,0.1,0.1-0.1,0.2,0c0.1,0,0.1-0.3,0.2-0.1
	c0.1,0,0.3-0.1,0.3-0.1l-0.4,0.2c0.3,0.1,0.7-0.4,1-0.4c0.2-0.1,0-0.5-0.1-0.2C26,17.3,25.9,16.8,25.7,17.2z M27.5,15.5
	c0,0.1,0.2,0.1,0.3,0.1c0,0-0.2,0.1-0.1,0.1c0.1,0.1,0.1,0,0.2,0c0,0.1,0.3-0.2,0.4-0.1c0,0-0.2,0-0.2,0.1l0.3-0.1
	c0,0-0.8,0.2-0.3,0.2c-0.2,0.1,0.1,0,0.2,0c0,0-0.2,0-0.1,0.1c0,0.1,0.3,0,0.3,0c0.1,0-0.1,0,0-0.1c0,0,0.1,0,0.2,0
	c-0.1-0.2-0.1-0.1,0.1,0c0-0.3,0.1,0,0.1-0.3c0,0.1,0.1,0.1,0.1,0c0.1-0.1,0.4-0.2,0.1-0.3c0,0,0,0.1,0,0s-0.2,0.1-0.2,0
	s-0.1-0.3-0.2-0.2s0.1,0.1,0,0.1h-0.1c0-0.2-0.2,0-0.3-0.1c-0.1-0.1-0.4-0.2-0.5-0.1H28c-0.1,0.1-0.5,0.2-0.2,0.2
	c-0.1,0-0.2,0.2-0.3,0.2c0.1,0,0.2,0,0.3,0c0,0-0.1,0,0,0.1C27.8,15.5,27.6,15.5,27.5,15.5z M26.6,17.1c0,0.1,0.3,0,0.2-0.1
	C26.7,17,26.5,17,26.6,17.1z M24.8,17.5c0,0-0.2,0.1-0.2,0.2C24.6,17.8,24.8,17.6,24.8,17.5z M40.3,18.6
	C40.3,18.6,40.3,18.7,40.3,18.6C40.3,18.7,40.3,18.6,40.3,18.6z M26.2,18c0.1,0.1,0.3,0.2,0.3-0.1C26.5,17.8,26.2,17.9,26.2,18z
	 M26.6,17.4c0-0.1-0.1-0.1-0.1,0C26.4,17.5,26.6,17.4,26.6,17.4z M26.5,17c0,0.1,0.2,0.1,0.2,0S26.5,16.9,26.5,17z M28,16.3
	c0.2-0.2-0.3-0.1-0.3,0C27.6,16.5,28,16.4,28,16.3z M29.9,17.3c0.1,0.1,0.4-0.1,0.5-0.1C30.3,16.9,29.5,16.9,29.9,17.3z M28.3,16.2
	c-0.1,0.1,0.2,0.1,0.2,0C28.5,16.2,28.4,16.1,28.3,16.2z M28.4,16.4c0,0.1,0.1,0.1,0.1,0.1S28.5,16.3,28.4,16.4z M61.3,19.1
	c0.1,0.1,0.7,0.1,0.3-0.1c-0.3-0.1-0.1-0.1-0.4-0.2C61,18.7,61.1,19.1,61.3,19.1z M47.8,15.5c0.1,0.2,0.6,0.5,0.7,0.4
	c0-0.1-0.3-0.3-0.2-0.5c0.4-0.9,1.5-0.4,2.1-0.7c0-0.2-0.2-0.2-0.4-0.2c-0.6,0.1-1.3-0.3-1.9,0.3c-0.1,0.1,0,0.2-0.2,0.2
	C47.9,15.2,47.6,15.3,47.8,15.5z M48.5,12.9c0,0-0.2-0.1-0.3,0C48.2,12.9,48.5,13,48.5,12.9z M49.2,12.7l-0.1-0.1
	c0.6,0-0.2-0.1-0.3,0C48.8,12.7,49.1,12.8,49.2,12.7z M48.7,16.1c0,0,0.2,0.3,0.2,0.2C49,16.3,48.7,16,48.7,16.1z M49.3,13.2
	l-0.1-0.1C49.1,13.2,49.3,13.3,49.3,13.2z M49,12.9c0-0.1-0.4-0.2-0.5-0.1C48.6,12.8,48.9,12.9,49,12.9z M47.6,12.5
	c-0.5,0.1,0,0.1,0.1,0.2c-0.1-0.2,0.3,0,0.4-0.1c-0.1-0.2-0.7-0.2-0.9-0.2C47.2,12.5,47.6,12.5,47.6,12.5z M47.2,16
	c0.1,0.1,0.2,0,0.2,0C47.4,15.9,47.1,15.8,47.2,16z M43.7,14.9l0.2-0.1C43.8,14.9,43.7,14.8,43.7,14.9z M25.5,16.6
	c0.1-0.1,0.4,0,0.4-0.1C25.7,16.3,25,16.8,25.5,16.6z M49.1,13c0,0-0.4-0.1-0.4,0C48.7,13.1,49.2,13.2,49.1,13
	C49.2,13.1,49.3,13.1,49.1,13z M60,18.6c0.1,0.2,0.3,0.1,0.6,0.1c0.1,0,0,0.1,0.1,0.1s0.2,0,0.1-0.1c0,0.1,0.3,0.1,0.3,0
	c-0.1-0.1-0.6-0.6-0.6-0.2C60.3,18.2,59.7,18.2,60,18.6z M40.3,19C40.3,19,40.3,18.9,40.3,19C40.3,18.9,40.3,18.9,40.3,19z
	 M60.4,19.2c0.5,0.4,0.1-0.3-0.1-0.3C60.2,18.9,60.3,19,60.4,19.2C60,19.2,60.3,19.1,60.4,19.2z M50.1,13.2c0.2-0.1-0.1-0.3-0.1-0.1
	C49.6,13,49.8,13.3,50.1,13.2z M49.3,13.1c0.1,0,0.2,0.2,0.4,0.1C49.8,12.9,49,12.9,49.3,13.1z M54.8,15.9c0.1,0,1.1,0.4,0.8,0
	c-0.1-0.1-0.2-0.2-0.3-0.2h0.1C55.2,15.4,54.9,15.8,54.8,15.9z M53.8,15c0.3,0,0.3,0.3,0.5,0.4c0.2,0,0.7,0.5,0.6,0.1
	c0.2-0.2-0.1-0.2-0.2-0.2c0.2-0.1,0,0-0.1-0.2c0.1-0.2,0.1-0.2-0.2-0.4c-0.1,0-0.2,0.1-0.3,0c-0.1,0-0.1,0-0.1,0.1
	C53.9,14.7,53.6,14.8,53.8,15z M65.3,21.2c0.1,0.1,0.6,0,0.3-0.2C65.4,20.8,64.9,21.2,65.3,21.2z M43,15.2
	C43,15.2,42.9,15.2,43,15.2C43,15.3,43,15.2,43,15.2z M42.7,15.5C42.7,15.5,42.8,15.5,42.7,15.5C42.8,15.4,42.7,15.4,42.7,15.5z
	 M42.9,15.2C42.9,15.2,42.8,15.3,42.9,15.2C42.9,15.4,43,15.3,42.9,15.2z M40.7,18.1C40.7,18.1,40.8,18.1,40.7,18.1
	C40.8,18.1,40.7,18.1,40.7,18.1C40.7,18,40.7,18.2,40.7,18.1z M43.8,14.9C43.9,14.8,43.9,14.8,43.8,14.9c0-0.1-0.1-0.1-0.1-0.1
	C43.7,14.8,43.8,14.9,43.8,14.9z M40.3,18.9C40.4,18.9,40.4,18.8,40.3,18.9C40.4,18.8,40.3,18.9,40.3,18.9z M42.9,15.4
	C42.9,15.4,42.8,15.4,42.9,15.4C42.8,15.5,42.9,15.4,42.9,15.4z M40.4,18.9C40.4,18.9,40.5,19,40.4,18.9
	C40.5,19,40.5,18.9,40.4,18.9z M40.4,18.5C40.4,18.6,40.4,18.5,40.4,18.5c0,0.1-0.1,0.2-0.1,0.2c0,0.1,0.1,0,0.1,0l0.1-0.1
	c-0.1,0.1-0.1,0.5,0,0.2c0-0.2,0,0,0.1-0.1c0.1,0-0.1,0.3,0,0.3c0-0.1,0,0,0.1,0l0.2-0.1v0.2c0.1,0,0,0.2,0,0.2c-0.1,0,0,0,0,0
	c-0.1,0-0.2,0-0.2,0v0.1c0,0,0.1-0.1,0.1,0c0.1,0.1-0.2,0.2-0.1,0.3c0.1,0,0.1,0,0.2,0c0.1-0.1,0.2-0.1,0.1,0
	c-0.2,0-0.3,0.2-0.3,0.3c0.1,0,0.3-0.1,0.4-0.2c0.1-0.1,0.1-0.1,0.3-0.1c0.1,0,0.4-0.1,0.2-0.2c0,0,0.1-0.2,0.2-0.3s-0.2,0-0.2,0
	s-0.1-0.1-0.1-0.2c0.2,0.1-0.1-0.1-0.1-0.3c0-0.2-0.4-0.1-0.2-0.2c0.2-0.3,0.1-0.4-0.2-0.2c0-0.1,0.1-0.1,0-0.1l0.2-0.2L41,18.1
	c-0.1,0,0,0.1-0.1,0.1c-0.1,0.1,0.2,0.1-0.1,0.1C40.4,18.5,40.3,18.5,40.4,18.5z M40.6,19.2C40.6,19.2,40.5,19.2,40.6,19.2
	C40.6,19.3,40.6,19.2,40.6,19.2z M43.1,15.3l0.1-0.1C43.2,15.2,43.1,15.3,43.1,15.3z M43.3,15C43.3,15,43.3,15.1,43.3,15
	C43.3,15.1,43.4,15,43.3,15z M43.2,15.1C43.1,15.1,43.1,15.1,43.2,15.1C43.1,15.3,43.4,15,43.2,15.1z M43.4,15
	C43.4,14.9,43.3,15,43.4,15C43.4,15,43.5,15,43.4,15z M43,15.3C43,15.4,43,15.3,43,15.3c-0.1,0-0.1,0.1-0.1,0.1
	C42.8,15.5,43.2,15.3,43,15.3z M43,15.5c-0.1,0.1,0,0,0,0.1C42.9,15.6,43,15.5,43,15.5z M43,15.4C43,15.4,42.9,15.5,43,15.4
	C43,15.5,43.1,15.3,43,15.4z M43.5,15c0,0-0.2,0-0.2,0.1C43.4,15.1,43.5,15,43.5,15z M43.6,14.9C43.5,14.9,43.5,14.9,43.6,14.9
	C43.6,15,43.6,14.9,43.6,14.9z M50.5,15.8c-0.2,0.1,0.1,0.2,0.1,0.1C50.6,15.9,50.5,15.8,50.5,15.8z M57.6,27.9
	C57.6,27.9,57.6,28.1,57.6,27.9c0.2,0.1-0.1,0.5,0.1,0.5c0.2-0.1,0.3-0.4,0.1-0.5c0.1,0,0.2,0,0.3,0c0.4-0.1,0.2,0.1,0.3,0.3
	c0.1,0,0.1-0.1,0.2-0.1c0,0,0-0.2,0-0.1c0.1,0.2,0.3-0.1,0.3,0.1c0.2-0.3,0,0.1,0.2-0.1c0.1-0.5,0.3-0.6,0.2-1.1
	c0-0.1-0.1,0.1-0.1,0.1c-0.1-0.1-0.2,0.2-0.1,0.2c0,0.2-0.5,0.7-0.4,0.3c-0.1,0-0.2,0.2-0.3,0.3C58.2,27.4,57.9,27.7,57.6,27.9z
	 M56.8,32.7c-0.2,0-0.2,0.4-0.1,0.4c0,0,0-0.2,0.1-0.1c0,0-0.1-0.1,0-0.1s0-0.1,0-0.1C56.7,32.8,56.8,32.7,56.8,32.7z M58.9,36.8
	c0-0.2,0-0.2-0.1-0.2c0-0.3-0.2-0.4-0.3-0.6c0-0.2,0.1-0.6-0.2-0.7c0-0.2,0-0.9-0.3-0.3c-0.1,0.2-0.1,0.7-0.3,0.7
	c-0.1-0.2-0.6-0.4-0.4-0.6c0.4-0.3-0.1-0.4-0.3-0.5c-0.1,0,0,0.1,0,0.1c-0.2-0.2-0.4,0-0.5,0.2c-0.4-0.5-0.8,0.2-1.2,0.5
	c-1.2-0.1-1.1,0.5-1,1.6c0.1,0.4-0.4,0.7,0.3,0.7c0.2-0.2,0.6,0.1,0.7-0.1c0.5-0.2,1.3,0,1.4,0.5c0.1,0,0.2-0.3,0.3-0.3
	c0,0.1-0.4,0.5,0,0.2c0,0.3,0.2,1,0.6,0.8c0.2-0.1,0.2,0.2,0.4,0.1C58.5,38.8,59.5,37.4,58.9,36.8z M56.3,33.4
	C56.3,33.5,56.4,33.5,56.3,33.4C56.5,33.4,56.4,33.3,56.3,33.4z M56.7,34.6C56.6,34.6,56.6,34.6,56.7,34.6
	C56.6,34.7,56.9,34.7,56.7,34.6z M59.6,34.2c0.1-0.1-0.1-0.3-0.2-0.3C59.4,33.9,59.6,34.1,59.6,34.2z M58,39.4c-0.2,0-0.2,0-0.4-0.1
	C57.3,39.9,58.1,40,58,39.4z M59.2,34.2c-0.4-0.1,0.3,0.3,0.3,0c0.1-0.1-0.1-0.2-0.1,0C59.3,34.3,59.3,34.1,59.2,34.2z M58.7,34.1
	c-0.1-0.4-0.9-0.9-1.2-0.5c-0.2-0.1,0-0.6-0.5-0.4c0,0.1,0.1,0,0.1,0.2c0,0.1,0.3,0,0.2,0.1c-0.2-0.1-0.3,0-0.1,0.2
	c0.2-0.1,0.1,0,0.2,0.1c0.3,0.2,0.6,0.3,0.3,0.6c0.3,0,0.3,0.3,0.6,0.2c0.3-0.5,0.6,0.4,0.9,0.4c-0.1-0.2-0.2-0.4-0.3-0.5
	c-0.1-0.2,0-0.1,0.1-0.1C58.9,34.3,58.8,34.2,58.7,34.1z M59.7,24.8c0,0.2-0.3,1.3,0,0.9c0.2,0.4,0-0.1,0-0.3c0.1-0.3,0.3-0.1,0.3,0
	c0-0.3-0.2-0.7,0-1.1c0-0.3-0.1-0.2-0.1,0C59.6,24.2,59.7,24.6,59.7,24.8z M56.4,31.6C56.5,31.6,56.5,31.6,56.4,31.6
	C56.4,31.5,56.3,31.6,56.4,31.6z M56.3,31.6c0,0,0.2-0.1,0.1-0.2C56.4,31.4,56.3,31.6,56.3,31.6z M56.6,31.4
	C56.5,31.4,56.4,31.4,56.6,31.4c0,0,0,0.3,0,0.1C56.6,31.7,56.6,31.4,56.6,31.4z M56.4,31.2C56.5,31.4,56.5,31.2,56.4,31.2
	C56.4,31.3,56.3,31.3,56.4,31.2z M56.5,31.2v0.1c0,0,0,0,0,0.1C56.7,31.5,56.6,31.2,56.5,31.2z M56.2,31.3c-0.1,0.1,0,0.2,0.1,0.2
	l-0.1,0.1c0.1,0.2,0.1-0.1,0.2-0.2C56.4,31.3,56.3,31.2,56.2,31.3z M55.6,32.8c-0.1,0.1-0.1,0.2,0,0.4c-0.1,0.1-0.1,0.3,0.1,0.2
	c0,0,0-0.4,0.1-0.4c0,0,0,0.1,0,0.2c0,0.1,0.1,0.1,0.2,0c0-0.1-0.1-0.1,0-0.2c-0.2,0-0.2,0,0.1,0c0.1-0.1-0.2-0.1-0.2-0.1
	c-0.1,0-0.2-0.2-0.1-0.2c0.2-0.1,0.5,0.3,0.6,0c-0.1,0-0.1,0.1-0.3,0C55.8,32.4,55.7,32.7,55.6,32.8z M56.1,30.9c0,0,0,0.2,0.1,0.2
	C56.2,31.1,56.1,30.9,56.1,30.9z M54.8,33.6C54.8,33.6,54.9,33.7,54.8,33.6C55,33.6,54.9,33.5,54.8,33.6z M59.3,26.3
	c0,0.1-0.2,0.2-0.1,0.4c0.2-0.1,0-0.1,0-0.2c0.2,0,0.2,0.1,0.4,0.2c0-0.2,0.3-0.1,0.3-0.2c0-0.3,0-0.1-0.2-0.3
	c-0.1-0.1-0.1-0.2-0.2-0.3C59.4,25.8,59.5,26.5,59.3,26.3z M42.5,18.6c0,0,0,0.1,0.1,0.1C42.7,18.7,42.6,18.5,42.5,18.6z M45.6,23
	c0,0.1-0.2,0-0.3,0.1C45.3,23.2,45.6,23.1,45.6,23z M44.6,23c0-0.1-0.3,0-0.3-0.1C44.1,23,44.5,23,44.6,23z M42.7,18.6
	c-0.1,0.1,0.1,0.1,0.1,0.2c0,0,0-0.1,0.1-0.1c0,0-0.1,0,0-0.1C42.9,18.5,42.8,18.4,42.7,18.6C42.8,18.6,42.7,18.5,42.7,18.6
	C42.7,18.4,42.7,18.5,42.7,18.6z M44.1,17.9c-0.1-0.1-0.2,0-0.1,0.1C43.9,18,44.1,17.9,44.1,17.9z M42.3,22c-0.1,0.2,0,0.5,0.1,0.1
	c0-0.1,0.1-0.4-0.1-0.3C42.2,21.9,42.3,21.9,42.3,22z M66.3,23.2c-0.3-0.1-0.2,0.1,0,0.1C66.6,23.5,66.4,23.2,66.3,23.2z M43.5,18.2
	c0.1,0,0.1-0.1,0.1-0.2C43.5,18,43.5,18.2,43.5,18.2z M43.7,17.5C43.7,17.5,43.7,17.4,43.7,17.5C43.8,17.4,43.6,17.4,43.7,17.5z
	 M42.3,21.6c0,0.3,0.2-0.1,0.1-0.2C42.4,21.5,42.4,21.6,42.3,21.6z M59.9,34.4C59.8,34.2,59.8,34.4,59.9,34.4
	C60,34.6,60,34.4,59.9,34.4z M58.2,28c0.2,0.2,0.2-0.3-0.1-0.1C57.9,27.9,58,28.2,58.2,28z M56.5,33.4
	C56.4,33.5,56.6,33.5,56.5,33.4l0.3,0.2C56.9,33.5,56.6,33.3,56.5,33.4z M61.1,40c0-0.3-0.2,0-0.3,0.2c-0.2,0.2-0.5,0.2-0.7,0.4
	c-0.1,0.1,0.1,0.1,0.1,0.1c0.3,0.3,0.4-0.3,0.7-0.4c0,0,0,0.1,0.1,0C61,40.2,61.2,40.1,61.1,40C61.3,39.9,61.2,39.9,61.1,40z
	 M60.3,40.8C60.3,40.7,60.2,40.8,60.3,40.8C60.3,40.8,60.4,40.8,60.3,40.8z M61.9,39.5c-0.2,0.1-0.3-0.1-0.3-0.2
	c-0.1,0.1-0.1,0-0.1-0.1s-0.3-0.5-0.2-0.1c0.1,0.1,0.2,0.5,0,0.6c0.1,0.2,0.3,0.1,0,0.3c0.1,0.2,0.3-0.1,0.3-0.2
	c0-0.1,0.1-0.1,0.1,0C61.8,39.7,62,39.5,61.9,39.5z M41.5,22.3C41.5,22.4,41.6,22.4,41.5,22.3C41.6,22.2,41.5,22.2,41.5,22.3z
	 M66.1,22.7c0,0,0,0.1-0.1,0.1s0,0.1,0,0.1c-0.1,0-0.3-0.1-0.3-0.2c0-0.2-0.2-0.2-0.3-0.3c-0.1,0,0-0.2-0.1-0.2s-0.1,0.1-0.1,0.2
	s-0.4,0.1-0.4,0.1c0.1,0.1,0.3,0.7,0,0.5s-0.9,0.3-1.1,0.4c-0.1-0.1-0.4-0.2-0.5,0c-0.1,0,0-0.1,0-0.1s-0.1,0.1-0.2,0
	c-0.2-0.2-0.4,0.3-0.5,0.4c0,0.1,0.2,0.1,0.2,0.2c-0.1,0.1,0,0.2,0,0.3c-0.2,0.1-0.1,0.4-0.3,0.4s-0.1,0.2-0.2,0.3
	c-0.1,0-0.1,0.1-0.2,0.1c-0.5,0.9-0.5-1.1,0-1.2c0.3-0.2,0.6-0.4,0.9-0.6c0.1-0.1,0.1-0.3,0.2-0.3c-0.1-0.1-0.2-0.1-0.3,0.1
	c-0.3,0.2-0.4,0.3-0.3-0.1c-0.3,0-0.7,0.1-0.8,0.3c0,0.1,0.1,0.2-0.1,0.2c-0.1,0-0.3,0-0.3,0c0.2-0.1-0.1-0.1-0.2-0.2
	c-0.3,0.1-0.6-0.2-0.9-0.1c-0.1,0.2-1.4,0.7-1,0.8c0.1,0.1,0.1,0.4,0.4,0.2c0.8,0.2-0.2,1.6-0.6,1.9c-0.2,0.1-0.3,0.3-0.5,0.2
	c-0.1-0.1-0.1-0.2-0.2-0.1c-0.1,0.1-0.4,0.4-0.5,0.6c0.1,0.2,0.3,0.8,0,0.9s-0.3-0.1-0.2-0.3c-0.1-0.1,0.1-0.3,0-0.4
	c-0.3,0-0.1-0.2-0.1-0.3c-0.1-0.4-0.3,0-0.5-0.1c-0.1-0.1,0.1-0.2,0.2-0.3c0-0.1-0.1-0.1-0.1-0.1c-0.3,0.2-0.6,0.1-0.4,0.5
	c0,0.2,0.4,0,0.5,0.2c-0.7,0.4-0.3,0.4-0.2,1c0,0.1-0.2-0.2-0.2-0.1c0,0,0.2,0.2,0.2,0.3c0,0.1-0.2,0-0.2,0.1c0.5,0.2-0.3,0.9-0.6,1
	s-0.8-0.1-0.8,0.1s-0.1,0-0.1-0.1c0.2-0.2-0.6-0.3-0.5,0.1c0.2,0.6,0.7,1.5-0.3,1.6c0-0.2-0.2-0.7-0.4-0.9c0-0.2-0.1-0.2-0.1,0
	c-0.3,0.6,0.4,1,0.2,1.6c0,0.1,0.1,0.3,0,0.3c-0.4-0.3-0.2-1-0.6-1.4c0-0.4,0.1-1.1,0-1.5c0-0.1-0.1,0.1-0.1,0.1
	c-0.3,0.1-0.2-0.2-0.1-0.4c0-0.3-0.3-0.7-0.3-0.9c-0.2,0-0.4-0.1-0.6-0.1c-0.1,0.2-0.6,0.5-0.8,0.5c-0.2,0.4-0.1,0.9,0.1,1.4
	c-0.1,0.4-0.3-0.2-0.2-0.3c0-0.3-0.1-0.3-0.1-0.1c-0.3,0.1-0.4-0.9-0.5-1.1c-0.2-0.4-0.1-0.9-0.1-1.3c-0.1-0.1-0.1,0.2-0.2,0.1
	c-0.1,0-0.2-0.3-0.2-0.3h0.2c-0.1,0-0.2-0.2-0.3-0.3c-0.1-0.6-1-0.3-1.3-0.8c-0.1-0.3-0.5-0.1-0.6-0.4c-0.2-0.5-0.7-0.9-0.4-0.2
	c0,0.1,0.2,0.5,0.2,0.5c0,0.1,0-0.2,0-0.2s0,0.3,0.1,0.4c0.2,0.2,0.5,0,0.6-0.2c0,0.1,0,0.4,0.2,0.5s0.3,0.5,0.1,0.6
	c0-0.1-0.1,0.1-0.1,0.2c0,0.2-0.3,0.1-0.4,0.3c-0.1,0-0.1-0.1-0.2,0c-0.2,0.2-0.7,0.3-1,0.4c-0.3-0.1-0.2-0.8-0.4-1.1
	c-0.3-0.5-0.4-1.2-0.8-1.7v-0.2c0,0,0,0.3-0.1,0.3s-0.2-0.4-0.2-0.4c0.1,0.6,0.5,1.4,0.6,2c0.2,0.1,0.2,0.4,0.3,0.6
	c0.2,0.2,0.4,0.4,0.4,0.6c0.3,0.7,1.6-0.6,0.7,1c-0.2,0.5-1.1,0.9-1.2,1.6c0,0.5,0.5,1.2,0,1.6c-0.7,0.2-0.4,0.6-0.4,1
	c-0.3,0.1-0.3,0.2-0.3,0.6c-0.3,0.5-0.7,0.9-1.2,0.9c-0.4,0.2-0.5-0.2-0.6-0.5C44.2,33.2,44,33,44,32.5c-0.2-0.5-0.5-0.9-0.2-1.5
	c0.2-0.9-0.7-1.4-0.5-2.2c0.1-0.4-0.3-0.3-0.5-0.3c-0.2-0.3-0.5-0.2-0.7-0.1c-0.2,0.2-0.5,0.3-0.7,0.3c-0.2,0.1-0.3,0.3-0.5,0.1
	c-0.5-0.2-1.2-1-1.1-1.5c0.2-0.3-0.1-0.7-0.1-1c0.2-0.6,0.6-1.3,1-1.8c0-0.5,0.4-0.8,0.6-1.2c0.2,0.1,0.1,0.1,0.3,0
	c0.2,0.1,0.6-0.4,0.8-0.4c0.1-0.1,0.2,0,0.3,0c0.1-0.1,0.4-0.1,0.5-0.2c0.3-0.2,0.2,0.4,0.1,0.6c0.1,0.2,0.4,0.2,0.6,0.3
	c0.1,0.2,0.2,0.2,0.4,0.3c0.2,0.2,0.3-0.1,0.2-0.2c0-0.2,0.4-0.3,0.4-0.1c0.2,0,0.2,0.2,0.3,0.1c0.2,0.2,0.5,0,0.7,0.1
	c0.1,0.1,0.3,0.1,0.4-0.1c0.1-0.2,0.3-1,0.1-0.8c-0.1-0.1-0.1,0.1-0.3,0s-0.2-0.2-0.4-0.1c-0.2,0-0.4-0.5-0.4-0.7
	c0-0.1-0.1,0.1-0.1,0c0-0.2,0.3-0.1,0.4-0.2c-0.1-0.1-0.1-0.1,0.1-0.1c0.1,0.1,0.2-0.2,0.3-0.1c0.2,0,0.2,0.1,0.4,0.2
	c0.8,0.4,0.8-0.1,0.2-0.6c-0.1-0.1-0.3-0.3-0.1-0.2l0.1-0.1l-0.1-0.1c0.1,0,0.3-0.1,0.1-0.1c-0.3,0-0.7,0.2-0.2,0.4c0,0-0.1,0-0.2,0
	L46,21.3c0-0.1-0.1-0.2-0.1-0.2c0.3-0.2-0.1-0.1-0.1-0.3c0.3,0.1,0-0.1-0.1,0c-0.2,0.1-0.1,0.3-0.2,0.4c-0.1,0.3-0.2,0.5,0,0.7
	c-0.2,0-0.2,0-0.3,0.2c0-0.1,0.1-0.1,0-0.2c-0.1,0-0.2-0.1-0.3,0c0,0.1-0.1,0.1-0.1,0.1c-0.1,0.1,0.1,0.2,0,0.3c0,0,0.2,0.2,0.1,0.2
	c-0.2-0.1,0,0-0.1,0.1c-0.1,0,0,0.1,0,0.1c-0.2-0.1-0.3-0.1-0.2-0.3c-0.3-0.1-0.2-0.6-0.4-0.8c-0.3-0.2-0.4-0.4-0.5-0.6
	c-0.1,0-0.1,0.1-0.1,0c-0.1-0.2-0.2,0.2-0.2,0.3c0.2,0.1,0.2,0.2,0.2,0.3c0.1,0.1,0.5,0.3,0.5,0.5C44,22.2,44,21.9,43.9,22
	c-0.1,0.1-0.1,0.1,0,0.2c0,0.2-0.3,0.2-0.2,0.5c0,0.2-0.4-0.2-0.3-0.2c0.3,0,0.6-0.1,0.4-0.4c-0.1,0-0.1-0.1-0.1-0.1
	c0-0.1-0.2-0.1-0.3-0.2c-0.2-0.1-0.2-0.6-0.5-0.4c-0.2,0.4-0.6,0.1-0.7,0.4c0,0.2,0,0.3-0.2,0.4c-0.3,0.2-0.2,0.5-0.3,0.8
	c-0.2,0.3-0.4,0.1-0.6,0.4c-0.1,0-0.1-0.1-0.1-0.2c-0.1-0.1-0.3,0-0.3,0c0-0.1,0-0.2,0-0.3c-0.2,0,0.1-0.4,0-0.6
	c0-0.2-0.2-0.4,0.1-0.5c0.2-0.2,1.1,0.2,1-0.6c0-0.3,0-0.1-0.2-0.4c-0.1,0-0.4-0.1-0.2-0.1c-0.1-0.1,0-0.1,0.1-0.2
	c0.5,0.1,0.1-0.4,0.3-0.2c0,0.1,0.3,0,0.2,0c0.2-0.1,0.2-0.4,0.4-0.5c0,0,0.1-0.1,0.2-0.1c-0.2,0,0.1-0.2,0.1-0.4
	c0.1-0.1,0.3-0.1,0.3-0.2c0.1,0,0.2,0,0.3-0.1c0,0-0.1-0.1,0-0.1v-0.1c0-0.1-0.1-0.2-0.1-0.3c-0.1-0.2,0.3-0.3,0.3-0.4
	c0,0,0,0.2,0,0.3c0,0.1-0.3,0.5,0.1,0.5c-0.1,0.2,0.1,0,0.2,0c0.1,0,0.2,0.3,0.2,0.1c-0.2,0,0.1,0,0.2-0.1c0.1-0.1,0.2-0.1,0.3-0.1
	c0,0,0-0.1,0,0l0.1,0.1c0-0.1,0.1-0.1,0.2-0.2c0,0-0.1,0.1,0,0.1c0.1-0.1-0.1-1,0.3-0.5c0.1,0,0.1-0.3,0-0.4
	c-0.2-0.3,0.3-0.3,0.4-0.2c0.1,0,0,0,0.1-0.1c0.1,0,0.2,0,0.2,0c-0.1-0.3-0.4-0.2-0.7-0.1c-0.3,0-0.3-0.4-0.4-0.7
	c0.1-0.2,0.3-0.3,0.4-0.5c0.3-0.1-0.3-0.4-0.4-0.2c0,0.4-0.6,0.6-0.4,1.1c0.1,0.2,0.3,0.2,0.1,0.4c-0.3,0.2,0,0.7-0.4,0.8
	c-0.3,0.5-0.2-0.2-0.3-0.4c-0.1-0.2-0.1-0.4-0.2-0.5l-0.1,0.2C42,18.5,41.7,17.3,42,17c0.2-0.2,0.4-0.3,0.5-0.6
	c0.3-0.6,0.6-1.4,1.3-1.5c0.2-0.2,0.5-0.4,0.3,0.1c0.1,0,0.2-0.4,0.2-0.1c0.1,0,0.1-0.2,0.2-0.1c0,0-0.1,0.1,0,0.1
	c0,0.1,0-0.1,0.1-0.1c0.3,0.1,0.3,0.3,0,0.2c0.1,0.1,0.3,0.2,0.4,0.1c0.1,0,0.2,0.1,0,0.1c0,0.1,0.2,0.1,0.3,0.1
	c1.2,0.5,1.2,1.5-0.2,0.6c0.2,0.1,0.2,0.5,0.3,0.7c0.3,0.3,0.5,0.3,0.2-0.1c0.1-0.1,0.4,0.2,0.5,0.2c0-0.1-0.1-0.3,0.1-0.3
	c0.1-0.1,0.3,0,0.4,0.1c0.1-0.1,0-0.2,0-0.3c0.1-0.3-0.2-0.5,0.2-0.2c0.1,0,0.2,0.2,0.1,0.2c-0.1,0-0.3,0-0.1,0.2
	c0.1,0.1,0.3,0.1,0.3-0.1c0.2,0,0.6-0.1,0.8-0.1c0.1,0.2,0.2,0.2,0.4,0.1c0.1,0.1,0.6,0,0.5,0.2c0.2,0.1,0.2-0.1,0.2-0.2
	c0.3,0,0.7,0.3,0.9,0.5c0.1,0.2,0.3,0.4,0.3,0.1c-0.1-0.1-0.4-0.3-0.2-0.5c-0.3-0.4,0.2-0.1,0.3-0.5c0.1-0.1,0.5,0.1,0.5,0.2
	c-0.1,0.2-0.2,0.3-0.1,0.5c0,0.1-0.2,0.4-0.1,0.5c0.3,0.3-0.1,0.5-0.3,0.5c-0.4-0.2,0,0.1,0.2,0.2c0.4,0,0.4-0.3,0.5-0.5
	c0.3-0.1,0.3,0.2,0.4,0.3c0.1-0.5-0.8-0.2-0.4-0.8c-0.2-0.2-0.1-0.4,0.2-0.3c0.1,0,0-0.2,0-0.2s0.1,0.1,0.1,0.2
	c-0.2,0.2,0.3,0.5,0.4,0.5c-0.8-0.6,0.2-0.5,0.4,0c0.2,0.1,0.2,0,0.1-0.1c-0.1-0.1-0.4-0.3-0.2-0.4s0.9,0.4,1,0.1
	c0-0.1,0-0.1,0.1-0.2c0.5-0.1,1.3,0.2,1.9,0.2c0.2-0.2,0.7-0.3,0.9,0c0,0.1-0.3,0-0.2,0l0.4,0.2l-0.2,0.1c0.2,0.1,0.2,0.1,0.3,0
	c0.1,0.1,0.3,0.1,0.5,0.2c0.9,0.7-0.6,0.7-1,0.9c0.2,0,1.1,0.2,0.7,0c0.2-0.1,0.4,0.2,0.7,0.3c0.2,0.1,0.9,0.3,0.5,0.3
	c0.1,0.2,0.5,0.3,0.7,0.3c0.1-0.2,0.5,0,0.7,0c0.3,0.2,0,0.5,0.1,0.8c0.1,0.2,0.3,0.3,0.4,0.1c0.1-0.1,0.2,0.2,0.4,0.1
	c0.3,0,0.4,0.3,0.7,0.2c-0.2-0.8,1.5,0.4,1.6,0.7c0.3,0,0.6,0,0.8,0.2c0.2,0.1,0.1,0.2,0.1,0.3c0.1,0.2,0.5,0.2,0.7,0.2
	c0.1,0.1,0.2,0,0.3,0.1s0.2,0.3,0.3,0.2c-0.1-0.6,0.9,0,1.1,0.2c0.4,0.2,0.6,0.6,0.7,0.8C65.9,22,67,22.9,66.1,22.7z M48,22.4
	c0-0.2-0.1-0.2-0.2,0c0,0,0-0.2,0-0.3c-0.2-0.1-0.2-0.3-0.3-0.5l0.1,0.1c-0.2-0.3,0.2-0.1,0.3,0c-0.1,0.1-0.1,0.1,0.1,0
	c-0.1-0.1-0.2-0.1-0.1-0.3c0-0.1-0.3-0.2-0.4-0.2c-0.1,0-0.1,0-0.1,0.1c-0.2,0.1-0.1,0-0.3,0.3c0.2,0.2,0.2,0.7,0.5,0.9
	c-0.3,0.2-0.1,0.6,0.2,0.8c0.4,0.2,0.3-0.3,0.2-0.5c0.1,0,0-0.1-0.1-0.1C47.7,22.3,48.3,22.8,48,22.4z M25.1,17.2h0.2
	C25.3,17.1,25.1,17.2,25.1,17.2z M30.4,29.5c0,0.1,0.2,0.1,0.3,0C30.6,29.4,30.4,29.4,30.4,29.5z M29.8,24.2L29.8,24.2
	c0.2-0.1-0.3,0-0.1,0C29.7,24.2,29.8,24.2,29.8,24.2z M29.5,24.1L29.5,24.1C29.5,24.2,29.5,24.2,29.5,24.1z M29.6,24.2
	C29.6,24.2,29.5,24.1,29.6,24.2C29.5,24.2,29.6,24.2,29.6,24.2z M33.4,21.9c0.2-0.5-0.6,0.7-0.5,0.9c0.1,0.1,0.7-0.3,0.5,0
	c0.1,0,0.2-0.2,0.2-0.2c0.1,0.3,0.3-0.1,0.2-0.3c-0.1-0.1-0.1-0.1-0.1-0.2c-0.1,0-0.2,0.1-0.2,0.1C33.4,22.1,33.2,22.2,33.4,21.9z
	 M31.9,29c0,0.1,0.2-0.1,0.2-0.1S31.8,28.9,31.9,29z M30.7,29.1c0.4-0.2-0.1-0.2-0.3-0.3c-0.3-0.1-0.9-0.2-1,0.2
	c0,0,0.6-0.4,0.3-0.2c0.2,0,0.5,0.1,0.7,0.2C30.3,29.3,30.6,29.1,30.7,29.1z M32.3,23.2c-0.1,0.2,0.3,0.2,0.3,0
	C32.5,23.2,32.3,23.2,32.3,23.2S32.3,23.1,32.3,23.2z M32.2,22.6c0,0.1,0.3,0.1,0.3,0C32.6,22.5,32.2,22.5,32.2,22.6z M36.3,31.9
	c0.1,0.5-0.5,1-0.5,1.4c0,0.4,0,1.1-0.3,1.5c-0.1,0.4-0.7,0.4-0.9,0.8c0,0.4-0.1,0.8-0.4,1.2c-0.1,0.2-0.2,0.4-0.3,0.5
	c-0.2,0.1-0.8-0.3-0.3,0.2c0.3,0.4-0.3,0.6-0.6,0.6c0,0.1,0.1,0.2,0,0.3c-0.2,0.1-0.4-0.1-0.3,0.3c0.3,0.3-0.5,0.6-0.1,0.9
	c0.3,0.1-0.1,0.4-0.2,0.6c-0.1,0.1,0.1,0.4,0.1,0.5c0.1,0.1,0.4,0.2,0.5,0.2c-0.3,0.3-1,0.2-1.3-0.2c-0.7-1.3-0.1-3.2-0.1-4.6
	c0-0.4,0.1-0.9-0.3-1c-0.7-0.4-1.6-1.5-1.2-2.4c0.2-0.4,0.5-0.9,0.4-1.3c-0.1-0.1-0.1-0.3-0.2-0.3c-0.2,0-0.2,0.2-0.2,0.3
	c-0.1,0.1-0.2-0.1-0.3-0.1c-0.1,0-0.1,0-0.2,0c-0.3-0.1-0.3-0.6-0.7-0.7c-0.3,0.1-0.5-0.1-0.7-0.4c-0.3,0.1-0.7,0-1-0.2
	c-0.5-0.1-0.3-0.6-0.5-0.9c-0.3-0.4-0.5-0.8-0.8-1.2c0-0.2-0.1-0.5-0.3-0.5c0.1,0.4,0.5,1,0.6,1.4c0.3,0.4-0.1,0.1-0.2-0.1
	c0-0.2,0-0.4-0.2-0.4c-0.2-0.2,0-0.1,0-0.3c-0.1-0.1-0.1-0.2-0.2-0.2c-0.2-0.5-0.3-0.8-0.7-1c-0.6-0.7-0.4-1.6-0.6-2.4
	c0.5,0.2,0.2-0.2-0.1-0.4c-0.5-0.1-0.7-0.7-0.9-1c-0.3,0.2-0.6-0.7-0.9-0.8c-0.2-0.1-0.5-0.3-0.7-0.2c-0.2-0.1-0.6-0.4-0.6,0
	c0,0.1-0.3,0.3-0.4,0.3s0-0.1,0-0.1V22c0.1-0.1,0.3,0,0.2-0.1c0.2-0.3-0.8,0.4-0.4,0.6c-0.1,0.3-0.5,0.4-0.7,0.7
	c-0.1,0.2-0.4,0.2-0.5,0.3c-0.2,0.2-0.4,0.2,0-0.1c0.3-0.2,0.8-0.5,0.7-0.8c-0.1,0.1-0.3,0.1-0.5,0c-0.2,0.2-0.2-0.1-0.2-0.2
	c-0.2,0.2-0.5,0-0.5-0.3c-0.1-0.4,0.8-0.4,0.5-0.7c0,0,0.1,0,0.1-0.1c-0.1-0.1-0.2,0.1-0.3,0.1c-0.1,0.1-0.5,0-0.4-0.1
	c-0.3,0-0.2-0.2,0.1-0.2c-0.1,0,0.2-0.2,0.2-0.1c0.1,0.2,0.5,0,0.3,0v-0.1c-0.1,0-0.3-0.1-0.4-0.2c-0.1,0-0.4-0.1-0.2-0.2
	c0-0.1,0.2,0,0.3-0.1c0.2-0.5,1-0.8,1.5-0.6c0.6,0.2,1.5,0,2.1,0.3c0.2-0.1,0.1-0.3,0.4-0.2c0.4-0.3,0.7-0.3,0.1,0
	c0.2-0.1,0.6-0.2,0.6-0.4c0.1,0,0.3,0.3,0.3,0.3c0.1,0,0.1-0.2,0.1-0.2c0.1,0.1-0.1,0.3,0.2,0.1c0-0.2,0.2-0.1,0.4-0.1
	c0.4,0.1,0.6-0.1,0.8,0.1c-0.4,0.5,0.5-0.1,0.7,0.1c0.1,0.1,0.2,0.4,0.2,0.1c0,0,0,0,0-0.1c-0.1-0.2,0.2-0.3,0.2-0.4
	c-0.1,0-0.3,0.2-0.3,0.1s0.3-0.3,0.4-0.2c0.1,0.2,0.2,0.1,0.4,0.2c0.3,0.1,0.5-0.2,0.6-0.3c0.2,0,0.3,0,0.2,0.2
	c0.3,0.2,0-0.2,0.2-0.2c0.1,0,0.1-0.1,0.2-0.2c0.1-0.2-0.1,0-0.1-0.1s0.3-0.3,0-0.2c-0.3,0.1-0.4-0.4-0.2-0.5c0.1,0-0.1,0,0-0.1
	s0.1-0.1,0.1-0.2c0-0.2-0.2-0.4,0-0.5c0-0.1,0.1-0.2,0.2-0.2c0.7-0.2,0.2,0.5-0.1,0.4c0.2,0-0.1,0.3,0,0.3c0.2,0,0.3,0.3,0.4,0.4
	c0,0.1-0.2,0.1-0.2,0.2c0.1,0.1,0.2-0.1,0.3,0c-0.2,0.1,0,0.1,0,0.2c0,0.4,0.1-0.2,0.2-0.2s0.3,0.1,0.1,0.3c-0.1,0,0-0.1,0,0
	c-0.1,0.1,0.2,0.3,0.2,0.2c0.1-0.2,0.1-0.3,0.2-0.5c0-0.1-0.1-0.3,0.1-0.3c0.3-0.1,0.6,0.2,0.3,0.3c0,0.1,0.3,0.2,0.1,0.4
	c-0.1,0.1-0.2,0.3-0.4,0.1l0.1,0.1c-0.1-0.1-0.1,0-0.2,0c0-0.1-0.2-0.1-0.2,0c0.1,0,0.1,0.1,0,0.3c-0.1,0.1-0.5-0.1-0.6,0
	c0.2,0.2,0.9-0.1,0.3,0.4c-0.1,0.1-0.4,0.2-0.6,0.1c0,0,0.2,0,0.1,0.1c0.3-0.1,0.3,0.1,0,0.2c-0.1,0.1-0.2,0.4-0.3,0.6
	c0,0.1-0.1,0.4-0.1,0.5c0.2,0,0.3,0.1,0.3,0.3c0.1,0.2,0.2-0.1,0.4,0c0.3,0,0.6,0.3,0.9,0.2c0.4-0.1,0,0.6,0.4,0.8
	c0.4,0,0.2-0.6,0.1-0.8c0-0.1,0.3-0.2,0.3-0.4c0.3-0.4-0.3-0.5-0.2-0.8c0.2-0.5-0.3-0.9,0.5-1c0.3-0.1,0.4,0.3,0.7,0.2
	c0,0-0.1,0.4,0,0.4c0,0-0.2,0.3-0.1,0.2c0.2,0,0.6,0,0.6-0.4c0-0.5,0.4,0.3,0.6,0.5c-0.1,0.3,0.1,0.2,0.2,0.4
	c0.4-0.1,0.4,0.1,0.1,0.3c0.2-0.1,0.1,0-0.1,0.1c-0.1,0.3,0.2-0.1,0.3-0.1c-0.1,0,0.1-0.1,0.1,0v0.1c0,0,0.1-0.1,0.2-0.1
	c0.2,0.5-0.3,0.5-0.5,0.8c-0.2,0.4-0.9,0.2-1.1,0.6c-0.2,0.2-0.5,0.6-0.5,0.7c0.1-0.1,0.6-0.9,0.9-0.7c0.1,0.1-0.1,0,0,0
	C32.3,22.9,32,23,32,23c0,0.1,0.2,0,0.2,0s-0.1,0.1-0.1,0.2c0.1-0.1,0,0.2,0.2,0.2l0,0c0.1,0.1,0.3-0.1,0.3,0c0.1,0,0-0.3,0.2-0.3
	c0.1,0,0,0.2,0,0.2s0.1,0,0.1,0.1c-0.2,0.1-0.3,0.4-0.6,0.4c-0.1,0.1-0.1,0.4-0.3,0.2c-0.1-0.1,0.1-0.3,0.2-0.4
	c0.1-0.1,0.1,0.1,0.2-0.1c-0.1,0-0.2,0.1-0.1,0c-0.1,0.1-0.2,0.2-0.4,0.3c-0.1,0.2-0.3,0.2-0.4,0.4c-0.1,0.1-0.2,0.5-0.1,0.5
	s0,0,0,0c0.1,0-0.1,0.1-0.1,0.1c0,0.1-0.3,0.2-0.3,0.3l0.2-0.1l0,0h0.1c0,0.1-0.3,0.1-0.3,0.2s-0.1,0.5-0.2,0.2l0.1,0.2
	c0,0.1-0.1,0.3-0.1,0.3c0-0.1,0.1-0.2,0-0.2c0,0,0.1-0.3,0-0.2c-0.1,0.1,0.1,0.4-0.1,0.3c0.1,0,0.1,0.1,0.1,0.2c0.1,0.1,0,0.2,0,0.2
	h0.1c0,0.1-0.2,0.1-0.1,0.1c-0.1,0,0,0.1,0,0.1s-0.1,0.1-0.2,0.1c-0.1,0.2-0.2,0.3-0.3,0.4c-0.6,0.4,0.3,1.3-0.2,1.5
	c-0.3-0.2,0-0.7-0.5-0.8c-0.1,0.1-0.2,0-0.5,0l-0.3,0.1c0,0,0.2,0,0.1,0.1s0.1,0,0.1,0c0,0.1-0.1,0-0.1,0c0,0.2-0.2,0-0.3,0
	c-0.3-0.1-0.6,0.3-0.7,0.6c0.1,0.4-0.1,0.9,0.1,1.3c0.1,0.2,0.2,0.2,0.3,0.3c0.1,0,0.2-0.2,0.3-0.1c0.2-0.1,0.1-0.4,0.2-0.6
	c0.6-0.3,0.3,0,0.3,0.2c0,0,0,0.1,0,0c0,0.1,0,0.3-0.1,0.1c0,0.1,0,0.2,0,0.3c-0.1,0.3,0,0.2,0.2,0.2c0.8-0.5,0,1.1,0.8,1
	c0.6-0.4,0.4,0.4,0.8-0.6c0.5-0.5,1.3-0.5,1.9-0.4c0.3,0.2,0.6,0.6,1.1,0.4c0.3,0.1,0.5,0.6,0.7,0.7C35.1,31.5,36.2,31.4,36.3,31.9z
	 M30.2,24.6c-0.1,0.1-0.7,0.5-0.5,0.3c0-0.1-0.1,0.1-0.1,0.2S30.3,24.8,30.2,24.6z M30.3,24.5c0.3,0,0.2-0.3,0.3-0.3
	C30.6,24.3,29.7,24.7,30.3,24.5z M28.4,24.2c0.1,0,0.4-0.2,0.5-0.3L28.8,24c0.1,0,0.1,0,0.2,0s0.2-0.2,0.3-0.1
	c0.2,0.1-0.2,0.1-0.3,0.2c0,0,0-0.1,0,0c0-0.1-0.2,0.2-0.1,0.3c0,0.1,0.1-0.2,0.1-0.1s-0.1,0.3-0.1,0.5c0.1,0.6,0.3,0,0.2-0.2
	c0-0.1,0.1-0.4,0.1-0.2c0-0.2,0.2-0.3,0.3-0.1c0,0.1,0,0.2-0.1,0.3c0.1-0.1,0.2-0.1,0.2,0.1c0.2-0.1,0.1-0.6,0.2-0.5
	c-0.1,0.1,0.1,0.1,0.1,0c0.1,0,0-0.2-0.1-0.3c-0.2,0-0.5,0.1-0.5-0.1c0-0.1,0-0.2-0.1-0.2c0,0-0.2,0-0.2-0.1s-0.1,0-0.1,0
	c-0.1-0.1-0.1,0-0.2,0.1c0-0.1,0,0-0.1,0C28.9,23.7,28.5,24.1,28.4,24.2z M24.9,20.3C24.8,20.3,24.9,20.3,24.9,20.3
	c-0.1,0-0.3,0.1-0.4,0.1c0.1-0.2,0.2-0.2-0.1-0.1c-0.1,0.1-0.7,0.3-0.5,0.3c0-0.1,0.4-0.2,0.4-0.1s-0.2,0-0.2,0.1c0.1,0.1,0,0,0,0.1
	L24,20.8c0.1,0.1,0.4-0.3,0.4-0.1c0,0.1-0.1,0.1-0.1,0.1s0.3-0.2,0.2-0.2C24.8,20.5,24.8,20.5,24.9,20.3z M26.1,21
	c-0.2-0.1-0.3,0.2-0.5,0.3c-0.1,0-0.6-0.2-0.3,0c0.1,0.2,0,0.2-0.1,0.3c0.1,0.1-0.2,0-0.2,0.1c0.1,0.1,0.4,0.1,0.5-0.1
	c0.2-0.1,0.3-0.3,0.5-0.4h-0.1c0.1-0.1,0.1,0,0,0c0.2-0.1-0.2,0.1-0.2,0.1C25.8,21,26.1,21.1,26.1,21z M27.6,23.3
	C27.7,23.3,27.7,23.2,27.6,23.3C27.7,23.2,27.7,23.4,27.6,23.3c0.1,0,0.2,0.1,0.1,0.1c0.1-0.1,0,0.1,0,0.2c0.1,0.1,0-0.1,0.1-0.1
	c0-0.2-0.2-0.5-0.2-0.7c0,0,0,0-0.1,0c0,0,0.1-0.1,0-0.1c0,0.3,0,0-0.1,0.2C27.4,23,27.6,23.3,27.6,23.3z M18.8,22.4h-0.2
	C18.6,22.5,18.9,22.5,18.8,22.4z M23.8,19c0.2,0,0.3,0.3,0.5,0c0.1,0.1,0.2-0.2,0.2-0.3c0.2-0.1,0.4-0.3,0.6-0.4
	c0.1-0.2-0.4-0.3-0.5-0.1c0,0.1,0.1-0.1,0,0c-0.1,0-0.2-0.1-0.3,0c-0.3,0.1-0.5,0-0.3,0.3C23.9,18.5,23.6,19.1,23.8,19z M24.3,17.7
	c0.1-0.2,0.1,0.1,0.2-0.1c0-0.2,0-0.1,0.1-0.1c0-0.1,0-0.1,0-0.1s0.1,0,0.1-0.1c0.1-0.2,0,0.2,0.2,0.1c0.1,0,0.2-0.2,0.1-0.2
	s0.1,0,0,0s0-0.1,0-0.1c-0.3-0.1-0.1,0.1-0.3,0C24.6,17.1,23.8,17.8,24.3,17.7z M25.3,16.8h-0.2C25.1,16.9,25.3,16.9,25.3,16.8z
	 M20.4,22.7c0,0,0.1-0.1,0.1,0C20.6,22.6,20.4,22.6,20.4,22.7z M23.2,23.4c-0.3-0.3,0,0.4,0.1,0.4C23.3,23.7,23.2,23.6,23.2,23.4z
	 M20.3,22.8c-0.2,0.2,0.2,0.2,0.2,0C20.7,22.8,20.5,22.7,20.3,22.8z M24.3,24.4c-0.1-0.1-0.4-0.4-0.6-0.3
	C23.7,24.2,24.4,24.8,24.3,24.4z M47.5,31c0-0.1-0.1-0.2-0.1-0.1c-0.1,0.2-0.3,0.4-0.5,0.4c-0.2,0.2,0.1,0.5-0.1,0.7
	c-0.1,0.4,0.4,1,0.5,0.3C47.3,31.9,47.6,31.3,47.5,31z M56,30.4c-0.1,0.1,0,0.3,0.1,0.3c-0.1,0.1,0.1,0.2,0.1,0.2
	c0.1,0.2,0.1-0.2,0.2,0.1c0.1,0.2,0.1,0.1,0.1,0h0.1c-0.1,0-0.1-0.1-0.2-0.1c-0.1,0-0.1,0-0.1-0.1s0-0.2,0.1-0.1
	c0.1-0.1,0-0.3,0.1-0.4C56,29.9,56.2,30.6,56,30.4z M56.4,29.3c0.2-0.3-0.2-0.3-0.2,0C56.2,29.6,56.3,29.6,56.4,29.3z M55.9,31.2
	c0,0.1-0.3,0.2-0.3,0.3C55.7,31.5,56,31.2,55.9,31.2z M56.6,31.7C56.6,31.6,56.6,31.6,56.6,31.7c-0.1,0-0.2,0-0.2,0
	c-0.2,0-0.1,0-0.1-0.1c0,0-0.3,0.1-0.2,0.2c0.2-0.1,0.1,0,0.2,0c0,0.1,0,0,0,0c0.1,0,0,0.3,0.2,0.3c0,0,0.1,0.1,0.1,0s0-0.1,0-0.1
	s0,0.3,0,0.1C56.7,32.1,56.7,31.8,56.6,31.7C56.7,31.8,56.7,31.8,56.6,31.7z M55.5,34c0-0.1-0.2-0.2-0.2-0.1
	C55.3,34,55.5,34.1,55.5,34z M55.2,33.7C54.9,33.5,55,33.8,55.2,33.7C55.4,33.8,55.2,33.6,55.2,33.7z M55.6,33.9
	c0.1,0,0.3,0.1,0.4,0.1C56,33.9,55.8,33.9,55.6,33.9C55.5,33.7,55.3,33.9,55.6,33.9z M55.8,33.5C55.9,33.7,55.9,33.5,55.8,33.5
	C55.9,33.4,55.8,33.4,55.8,33.5z M54.4,32.2c0,0.1-0.1,0.3,0.1,0.3c0,0.1-0.1,0.4,0.2,0.3c0,0.2,0.1,0,0.2,0.1
	c0.2,0.1,0,0.2,0.3,0.1c0,0.2,0.1-0.1,0.1-0.2c0.2-0.1,0.2-0.4,0.3-0.3c0.2,0.1-0.1-0.2,0-0.4c0-0.1,0.1,0,0.1,0
	c-0.1-0.1,0-0.1,0.1-0.1c-0.1-0.1-0.1-0.3-0.2-0.3C55.4,31.8,55.2,32,55,32c-0.1,0-0.3,0-0.2,0.2C54.5,32.1,54.4,31.8,54.4,32.2z
	 M56,34.2c0.1-0.1,0.6-0.1,0.2-0.2C56,34,55.7,34.2,56,34.2z M31.1,29.3c0.2-0.1,0.2,0.2,0.2-0.1c0.2-0.1,0.6-0.1,0.2-0.3
	C31.4,28.8,31.1,29,31,29C31,29,31.1,29.1,31.1,29.3C30.9,29.2,30.7,29.4,31.1,29.3z M39,17.2c0.1,0,0.1-0.1,0.1-0.1
	c0.1-0.1,0.2-0.1,0.1-0.2c-0.1,0-0.3-0.2-0.4-0.1c-0.1,0.2-0.3,0-0.2,0.2c-0.1-0.1-0.2-0.1-0.2,0c-0.2-0.2-0.1,0.4-0.3,0.1
	c0.2-0.1-0.1-0.2-0.2-0.1c0.1,0,0.1,0-0.1,0c0,0.1,0.1,0.1-0.1,0.1c-0.2,0.2,0.2-0.1,0.3,0c0,0-0.2,0.1,0,0.1
	c0.1,0.1-0.3,0.1-0.3,0.2s0.2-0.1,0.3,0s-0.1,0.1-0.1,0.2c0.2-0.1,0.2-0.1,0.4,0C38.7,17.5,38.8,17.3,39,17.2z M38,15.7
	c-0.3-0.6,0.8-1.3,0-1.7c0.2-0.3,0.4-0.3,0-0.6c-0.1-0.4,0.7-0.7,0.5-0.9c0.2-0.1,0.5-0.2,0.6-0.4c-0.2-0.2-0.7-0.1-0.9,0.2
	c-0.2,0-0.5,0.1-0.6,0.2c0.2-0.4,0-0.2-0.2-0.3c1-0.5-1-0.3-1.4-0.2s-0.5,0.1-0.7,0.4c-0.2,0-0.5,0-0.7,0.1
	c-0.5,0.3-0.5,0.3-0.1,0.5c-0.3,0.1-0.8-0.1-1.1,0.1c-0.7,0.2-1.4,0.7-2,1.3c0.1,0.2,0.5-0.2,0.3,0.3c-0.5,0.4-1.7,0.6-0.4,1.1
	c0.4,0.2,1.3-0.5,1.6,0c0.1,0.2,0.4,0.5,0.3,0.7c-0.2,0.2,0.1,0.3,0.1,0.5c-0.2,0.5,0.3,0.3,0.5,0.1c0.1,0.3-0.4,0.3-0.3,0.6
	c-0.1,0.5,0.5,1.5,0.9,1.6c0.8,0.3,0.7-0.9,0.9-1.4c0.1-0.3,0.5-0.4,0.7-0.6c0.1-0.2,0.2-0.4,0.3-0.5C37,16.6,38,16.3,38,15.7z
	 M54.8,29.5c0.1,0,0.2-0.2,0.1-0.2c0,0.1-0.2-0.1-0.3,0C54.6,29.4,54.8,29.6,54.8,29.5z M53.8,32.9c0-0.1,0.2-0.5,0-0.5
	c0-0.1,0-0.3-0.1-0.4c0.1-0.2-0.1-0.4-0.2-0.5c-0.2-0.3-0.3-0.8-0.6-0.9c0.1,0.3,0.3,0.8,0.4,1.1C53.3,32.1,53.5,32.9,53.8,32.9z
	 M54.2,32.6C54.1,32.5,54.1,32.6,54.2,32.6C54.2,32.7,54.2,32.6,54.2,32.6z M54.7,33.5c-0.1-0.1-0.1-0.2-0.3-0.2
	c-0.1-0.1-0.1,0.1-0.1,0c-0.1,0-0.2-0.2-0.3-0.2c-0.1-0.1-0.3,0-0.1,0.1C54,33.3,54.4,33.4,54.7,33.5C54.8,33.7,54.9,33.5,54.7,33.5
	z M53.8,32.3c0,0,0.1,0.1,0.1,0.2C54.1,32.7,53.9,32.2,53.8,32.3C53.9,32.3,53.8,32.3,53.8,32.3z"/>
</svg>
