<svg xmlns="http://www.w3.org/2000/svg" width="149.8131" height="33.6405" viewBox="0 0 149.8131 33.6405"><g style="isolation:isolate"><g id="Layer_2" data-name="Layer 2"><g id="Layer_1-2" data-name="Layer 1"><path d="M148.4356,0V25.2938c0,1.9988-3.05,6.9692-6.7769,6.9692H8.1544c-3.7273,0-6.7769-4.97-6.7769-6.9692V0" fill="#90c0b8" stroke="#90c0b8" stroke-miterlimit="10" stroke-width="2.755"/><rect x="12.1768" y="11.2706" width="19.9978" height="11.4495" rx="5.7248" fill="#409284"/><path d="M22.6338,12.4391h3.5606a4.6182,4.6182,0,0,1,4.6046,4.6047h0a4.6182,4.6182,0,0,1-4.6046,4.6046H22.6338" fill="#273349"/><path d="M25.9075,17.95v.5932h-1.97V17.95h.6767V15.6859a1.1023,1.1023,0,0,1-.3476.2739.9289.9289,0,0,1-.4414.147v-.6079a.5727.5727,0,0,0,.2138-.0464,1.0922,1.0922,0,0,0,.212-.1128c.0634-.0435.124-.0889.1806-.1362s.1006-.086.1319-.1172a.381.381,0,0,0,.0507-.0562h.6709v2.92Z" fill="#fff"/><path d="M26.5618,17.0726a1.0882,1.0882,0,0,1-.3506-.8222,1.1927,1.1927,0,0,1,.3643-.8614,1.2664,1.2664,0,0,1,.4062-.2549,1.3417,1.3417,0,0,1,.502-.0947,1.1464,1.1464,0,0,1,.9375.4214,1.8046,1.8046,0,0,1,.3428,1.17,2.4913,2.4913,0,0,1-.36,1.4492,1.1419,1.1419,0,0,1-.9863.5108,1.2982,1.2982,0,0,1-.6045-.1436,1.3225,1.3225,0,0,1-.4707-.4092l.3789-.4116a.8569.8569,0,0,0,.3047.2886.8058.8058,0,0,0,.4.104.6246.6246,0,0,0,.5273-.2632,1.2443,1.2443,0,0,0,.2031-.7324.7272.7272,0,0,1-.2968.28.9063.9063,0,0,1-.4336.103A1.2056,1.2056,0,0,1,26.5618,17.0726Zm1.3721-1.2876a.6167.6167,0,0,0-.4551-.1972.603.603,0,0,0-.4473.1948.64.64,0,0,0-.1884.46.6125.6125,0,0,0,.1884.4512.6191.6191,0,0,0,.4522.188.6286.6286,0,0,0,.4541-.1856.6029.6029,0,0,0,.1894-.4462A.6434.6434,0,0,0,27.9339,15.785Z" fill="#fff"/><g style="mix-blend-mode:screen"><rect x="14.3392" y="16.0753" width="6.6691" height="1.7979" rx="0.8989" fill="#409284"/></g><g style="mix-blend-mode:screen"><rect x="16.7913" y="13.5303" width="1.7979" height="6.6691" rx="0.8989" fill="#409284"/></g><g style="mix-blend-mode:screen"><rect x="16.8667" y="13.5567" width="1.7979" height="6.6691" rx="0.8989" transform="translate(-6.7405 17.5094) rotate(-44.9998)" fill="#409284"/></g><g style="mix-blend-mode:screen"><rect x="14.52" y="15.9266" width="6.6691" height="1.7979" rx="0.8989" transform="translate(-6.668 17.5531) rotate(-44.9999)" fill="#409284"/></g><path d="M42.5218,11.98a4.7709,4.7709,0,0,1,2.3818.5821,3.7506,3.7506,0,0,1,1.543,1.563l-1.7451,1.2177a2.2647,2.2647,0,0,0-.42-.646,1.8629,1.8629,0,0,0-.5654-.4194,2.7546,2.7546,0,0,0-.6152-.21,3.0825,3.0825,0,0,0-.6328-.0644,2.5058,2.5058,0,0,0-.9336.1694,2.1959,2.1959,0,0,0-.7246.4566,2.7274,2.7274,0,0,0-.5039.67,3.2321,3.2321,0,0,0-.3047.7988,3.7106,3.7106,0,0,0-.0977.856,3.419,3.419,0,0,0,.3145,1.4614,2.71,2.71,0,0,0,.913,1.0962,2.3209,2.3209,0,0,0,1.3643.42,2.8064,2.8064,0,0,0,.8486-.1289,2.3265,2.3265,0,0,0,.7891-.4429,1.9694,1.9694,0,0,0,.5684-.7817l1.8535,1.0894a2.9651,2.9651,0,0,1-.9541,1.2314,4.6744,4.6744,0,0,1-1.4991.7954,5.4626,5.4626,0,0,1-1.6611.26,4.471,4.471,0,0,1-1.9551-.44,4.7422,4.7422,0,0,1-1.5468-1.1533,5.5364,5.5364,0,0,1-.9873-1.6309,5.0039,5.0039,0,0,1-.3623-1.8579,4.9254,4.9254,0,0,1,.21-1.4209,4.7709,4.7709,0,0,1,.6358-1.33,5.2087,5.2087,0,0,1,1.0078-1.103,4.5353,4.5353,0,0,1,1.3779-.7578A5.0718,5.0718,0,0,1,42.5218,11.98Z" fill="#173244"/><path d="M46.9886,16.94a4.9618,4.9618,0,0,1,2.3984-4.2632,4.9037,4.9037,0,0,1,4.1455-.4194,4.4153,4.4153,0,0,1,1.3526.7646,5.4072,5.4072,0,0,1,1.0117,1.12,5.0389,5.0389,0,0,1,.2539,5.2675A4.9129,4.9129,0,0,1,54.3919,21.25a4.8692,4.8692,0,0,1-4.5137.2773,4.65,4.65,0,0,1-1.5537-1.13,5.3266,5.3266,0,0,1-.98-1.6074A5.0046,5.0046,0,0,1,46.9886,16.94Zm4.8925,2.9912a2.44,2.44,0,0,0,1.126-.2573,2.2385,2.2385,0,0,0,.8155-.687,3.2354,3.2354,0,0,0,.4746-.9575,3.71,3.71,0,0,0,.1621-1.0894,3.4887,3.4887,0,0,0-.1729-1.1,3.12,3.12,0,0,0-.49-.937,2.2779,2.2779,0,0,0-.8154-.6568,2.61,2.61,0,0,0-2.2237.01,2.2591,2.2591,0,0,0-.8115.6768,3.24,3.24,0,0,0-.4775.9438A3.68,3.68,0,0,0,49.472,18.07a3.0883,3.0883,0,0,0,.4873.9443,2.319,2.319,0,0,0,.8154.6665A2.4226,2.4226,0,0,0,51.8811,19.931Z" fill="#173244"/><path d="M59.1282,12.034l2.3145,7.18,2.2871-7.18h2.3955L62.552,21.8729H60.32L56.719,12.034Z" fill="#173244"/><path d="M67.0384,21.8729V12.034h2.2744v9.8389Z" fill="#173244"/><path d="M71.1936,21.8729V12.034h3.6749a5.6281,5.6281,0,0,1,2.1279.3824,4.099,4.099,0,0,1,1.5459,1.0551,4.66,4.66,0,0,1,.917,1.5567,5.6534,5.6534,0,0,1,.3144,1.9116,4.8559,4.8559,0,0,1-1.3427,3.583,4.8029,4.8029,0,0,1-3.5625,1.35ZM74.8685,14.03H73.4671v5.8467h1.4014a2.3559,2.3559,0,0,0,1.9042-.8154,3.1812,3.1812,0,0,0,.6866-2.1216,3.1125,3.1125,0,0,0-.6895-2.1147A2.3885,2.3885,0,0,0,74.8685,14.03Z" fill="#173244"/><path d="M84.6331,21.8729V12.034h.9746v8.98h5.6768v.8594Z" fill="#173244"/><path d="M91.6565,16.9535a5.1147,5.1147,0,0,1,.3584-1.8848A5.3215,5.3215,0,0,1,92.98,13.475a4.5564,4.5564,0,0,1,1.4746-1.0962,4.2824,4.2824,0,0,1,4.6426.6362,5.3812,5.3812,0,0,1,.9609,1.1235,5.1393,5.1393,0,0,1,.6191,1.3633,5.27,5.27,0,0,1,.21,1.4649,5.1027,5.1027,0,0,1-.3555,1.8813,5.2912,5.2912,0,0,1-.9609,1.59,4.52,4.52,0,0,1-1.4717,1.0928,4.3123,4.3123,0,0,1-3.7051-.0171,4.4652,4.4652,0,0,1-1.4687-1.123,5.3656,5.3656,0,0,1-.93-1.5938A5.1808,5.1808,0,0,1,91.6565,16.9535Zm4.6153,4.1142a3.2484,3.2484,0,0,0,1.5088-.3589,3.4754,3.4754,0,0,0,1.1572-.94,4.5728,4.5728,0,0,0,.7207-1.3164,4.5251,4.5251,0,0,0-.1992-3.5015,3.9071,3.9071,0,0,0-1.3067-1.5161,3.3514,3.3514,0,0,0-3.39-.2265,3.4627,3.4627,0,0,0-1.1572.9341,4.5164,4.5164,0,0,0-.7207,1.3125,4.5185,4.5185,0,0,0,.7509,4.3544,3.5383,3.5383,0,0,0,1.16.9136A3.2582,3.2582,0,0,0,96.2718,21.0677Z" fill="#173244"/><path d="M106.7337,11.98a4.1547,4.1547,0,0,1,2.2226.585,3.6193,3.6193,0,0,1,1.4112,1.56l-.7647.4736a3.0819,3.0819,0,0,0-1.8271-1.59,3.8189,3.8189,0,0,0-1.0967-.1558,3.4663,3.4663,0,0,0-1.2783.2339,3.1933,3.1933,0,0,0-1.0254.6323,4.0676,4.0676,0,0,0-.7373.9238,4.2377,4.2377,0,0,0-.457,1.11,4.7771,4.7771,0,0,0-.1485,1.1875,4.4348,4.4348,0,0,0,.4805,2.0337,3.9684,3.9684,0,0,0,1.3359,1.5293,3.2721,3.2721,0,0,0,1.8711.5786,3.6018,3.6018,0,0,0,1.1436-.1865,3.3891,3.3891,0,0,0,1.0791-.6089,3.0288,3.0288,0,0,0,.8154-1.0317l.7988.4126a3.2776,3.2776,0,0,1-.9511,1.2348,4.4873,4.4873,0,0,1-1.4073.792,4.7037,4.7037,0,0,1-1.5322.26,4.1015,4.1015,0,0,1-1.51-.2842,4.1833,4.1833,0,0,1-1.2783-.7813,5.6036,5.6036,0,0,1-.9678-1.1372,5.2407,5.2407,0,0,1-.63-1.38,5.2983,5.2983,0,0,1-.2159-1.4854,5.0916,5.0916,0,0,1,.3174-1.7661,5.3858,5.3858,0,0,1,.8965-1.57,4.2742,4.2742,0,0,1,1.4824-1.1368A4.5006,4.5006,0,0,1,106.7337,11.98Z" fill="#173244"/><path d="M115.1321,12.034h.8184l4.0869,9.8389h-1.0283l-1.2725-3.0791h-4.4189l-1.2647,3.0791h-1.0361Zm2.3819,6.002-1.9834-4.8652-2.01,4.8652Z" fill="#173244"/><path d="M121.4446,21.8729V12.034h.9746v8.98h5.6778v.8594Z" fill="#173244"/></g></g></g></svg>