<?xml version="1.0" encoding="utf-8"?>
<!-- Generator: Adobe Illustrator 24.1.0, SVG Export Plug-In . SVG Version: 6.00 Build 0)  -->
<svg version="1.1" id="Layer_1" xmlns="http://www.w3.org/2000/svg" xmlns:xlink="http://www.w3.org/1999/xlink" x="0px" y="0px"
	 viewBox="0 0 260.9 120.12" style="enable-background:new 0 0 260.9 120.12;" xml:space="preserve">
<style type="text/css">
	.st0{fill:#00AEEF;}
	.st1{fill:#CFE7F8;}
	.st2{fill:#1B315E;}
</style>
<path class="st0" d="M212.4,0.02c-26.8,0-48.4,21.7-48.4,48.4c0,7,1.5,13.6,4.2,19.6l28.5-22.8l-21.6,28.4l50.8-40.5l-37.8,49.7
	l28.3-22.5l-24.1,32.1c6.2,2.8,13,4.4,20.2,4.4c26.7,0,48.4-21.7,48.4-48.4C260.8,21.72,239.1,0.02,212.4,0.02L212.4,0.02z"/>
<path class="st1" d="M247.4,15.12c-6.1,2.9-23.2,6.6-34.6,6.6c-13.9,0-26.6-2.7-35.2-6.9l1.3-1.3c0,0,31.7,15,66.9,0L247.4,15.12
	L247.4,15.12z M197.3,85.62l1-1.4c0,0,28.5,5.2,55-9.9l-1.6,2.5C251.7,76.82,231.2,90.22,197.3,85.62z M217.8,0.32
	c42.9,48.8,2,96,2,96c-0.5,0.1-2.2,0.2-2.2,0.2c42.9-55-2.2-96.5-2.2-96.5L217.8,0.32L217.8,0.32z M194.8,73.92l-1,1.3
	c0.2,0.7,0.5,1.5,0.9,2.3l1.2-1C195.5,75.62,195.1,74.72,194.8,73.92L194.8,73.92z M189.8,61.92l1.1-0.9c-0.5-2.4-0.8-4.8-0.9-7
	l-1.2,1.5C189,57.62,189.3,59.82,189.8,61.92z M198.1,84.52c4,7.4,7.9,11.9,7.9,11.9c0.5,0.1,2.2,0.3,2.2,0.3
	c-3.6-4.7-6.7-9.3-9-13.5L198.1,84.52z M189.7,50.82c-1-30.6,20.9-50.8,20.9-50.8c-1.3-0.1-2.7,0.2-2.7,0.2
	c-16,18.1-20.3,36.2-19.5,51.6L189.7,50.82L189.7,50.82z M208.7,55.72l-1.2,1.6c1.6,0.1,3.5,0.2,5.3,0.2c18.5,0,35.5-4.8,48-11.8
	l-0.4-1.8C242,53.92,224,56.42,208.7,55.72L208.7,55.72z M187.4,52.62c-14.2-3.5-23.2-8.6-23.2-8.6l-0.2,1.7
	c5.9,3.4,13.4,6.3,21.6,8.3L187.4,52.62L187.4,52.62z M190.5,53.42l-1.1,1.5c2.3,0.5,4.9,0.9,7.5,1.3l1.7-1.4
	C195.7,54.52,192.9,53.92,190.5,53.42z"/>
<path class="st2" d="M0,87.62v-71.6l48.2,50.5v-50.6H59v74.9l-48.2-50.4v47.3L0,87.62L0,87.62z M96.8,26.22v61.5H86v-61.5H69.5
	v-10.2h43.7v10.2L96.8,26.22L96.8,26.22z M135.1,16.02v71.6h-10.8v-71.6H135.1z"/>
<path class="st0" d="M0,119.32v-13.5h2c0.9,0,1.6,0.1,2.2,0.2c0.5,0.1,1,0.4,1.4,0.7s0.7,0.8,0.9,1.3s0.3,1,0.3,1.6
	c0,1-0.4,1.8-1.1,2.5c0.7,0.2,1.3,0.7,1.7,1.3s0.6,1.3,0.6,2.1c0,1.1-0.4,1.9-1.1,2.7c-0.4,0.4-1,0.8-1.5,0.9
	c-0.6,0.2-1.4,0.3-2.3,0.3L0,119.32L0,119.32z M2,111.62h0.6c0.8,0,1.3-0.2,1.7-0.5s0.5-0.8,0.5-1.5c0-0.6-0.2-1.1-0.5-1.4
	c-0.4-0.3-0.9-0.5-1.6-0.5H2V111.62z M2,117.42h1.3c0.9,0,1.6-0.2,2-0.5c0.5-0.4,0.7-0.9,0.7-1.5s-0.2-1.1-0.7-1.5
	c-0.4-0.4-1.2-0.6-2.3-0.6H2V117.42z M13.2,105.82v8.1c0,1.2,0.2,2,0.6,2.5c0.6,0.8,1.4,1.2,2.4,1.2s1.8-0.4,2.4-1.2
	c0.4-0.5,0.6-1.4,0.6-2.5v-8.1h2v8.7c0,1.4-0.4,2.6-1.3,3.5c-1,1-2.2,1.5-3.7,1.5s-2.7-0.5-3.7-1.5c-0.9-0.9-1.3-2.1-1.3-3.5v-8.7
	H13.2z M27.3,105.82v13.5h-2v-13.5H27.3z M33.5,105.82v11.6h4v1.9h-6v-13.5H33.5z M40.2,119.32v-13.5H43c1.4,0,2.4,0.1,3.2,0.4
	s1.6,0.7,2.3,1.3c1.4,1.3,2.1,2.9,2.1,5s-0.7,3.8-2.2,5c-0.7,0.6-1.5,1.1-2.3,1.3c-0.7,0.3-1.8,0.4-3.2,0.4h-2.7L40.2,119.32
	L40.2,119.32z M42.3,117.42h0.9c0.9,0,1.7-0.1,2.3-0.3s1.2-0.5,1.6-1c1-0.9,1.5-2.1,1.5-3.6s-0.5-2.7-1.5-3.6
	c-0.9-0.8-2.2-1.2-3.9-1.2h-0.9L42.3,117.42L42.3,117.42z M55.9,105.82v13.5h-2v-13.5H55.9z M59.7,119.32v-14.4l9.8,10.3v-9.4h2
	v14.3l-9.8-10.3v9.4h-2V119.32L59.7,119.32z M82.5,112.22h5.6v0.4c0,1-0.1,1.9-0.4,2.7c-0.2,0.7-0.6,1.4-1.2,2
	c-1.3,1.4-2.8,2.1-4.8,2.1c-1.9,0-3.5-0.7-4.8-2c-1.3-1.4-2-3-2-4.9c0-2,0.7-3.6,2.1-5s3-2.1,5-2.1c1.1,0,2,0.2,3,0.6
	c0.9,0.4,1.7,1.1,2.6,2.1l-1.5,1.4c-1.1-1.5-2.5-2.2-4-2.2c-1.4,0-2.6,0.5-3.6,1.5s-1.5,2.2-1.5,3.6c0,1.5,0.5,2.7,1.6,3.7
	c1,0.9,2.1,1.4,3.3,1.4c1,0,1.9-0.3,2.7-1c0.8-0.7,1.2-1.5,1.3-2.4h-3.4L82.5,112.22L82.5,112.22z M105.2,116.02h-5.8l-1.5,3.3h-2.2
	l6.7-14.3l6.4,14.3h-2.2L105.2,116.02z M104.4,114.12l-2-4.6l-2.1,4.6H104.4z M124.3,107.82l-1.7,1c-0.3-0.5-0.6-0.9-0.9-1
	c-0.3-0.2-0.7-0.3-1.1-0.3c-0.6,0-1,0.2-1.4,0.5s-0.6,0.7-0.6,1.2c0,0.7,0.5,1.2,1.5,1.6l1.3,0.6c1.1,0.4,1.9,1,2.4,1.6
	s0.8,1.4,0.8,2.3c0,1.2-0.4,2.3-1.2,3.1c-0.8,0.8-1.9,1.2-3.1,1.2s-2.1-0.3-2.9-1s-1.2-1.7-1.4-2.9l2.1-0.5c0.1,0.8,0.3,1.3,0.5,1.6
	c0.4,0.6,1,0.9,1.8,0.9c0.6,0,1.2-0.2,1.6-0.6c0.4-0.4,0.6-1,0.6-1.6c0-0.3,0-0.5-0.1-0.7l-0.3-0.6c-0.2-0.2-0.4-0.4-0.6-0.5
	c-0.2-0.2-0.5-0.3-0.9-0.5l-1.3-0.5c-1.8-0.8-2.8-1.9-2.8-3.4c0-1,0.4-1.9,1.2-2.5c0.8-0.7,1.7-1,2.9-1
	C122.2,105.52,123.4,106.32,124.3,107.82L124.3,107.82z M135.5,116.02h-5.8l-1.5,3.3H126l6.7-14.3l6.4,14.3h-2.2L135.5,116.02z
	 M134.6,114.12l-2-4.6l-2.1,4.6H134.6z M148.5,107.72h-4.7v3.2h4.5v1.9h-4.5v6.4h-2v-13.5h6.7V107.72L148.5,107.72z M159.2,107.72
	h-5.4v3.2h5.3v1.9h-5.3v4.5h5.4v1.9h-7.4v-13.5h7.4V107.72L159.2,107.72z M167.3,113.52l4.2,5.7H169l-3.9-5.5h-0.4v5.5h-2v-13.5h2.4
	c1.8,0,3.1,0.3,3.9,1c0.9,0.7,1.3,1.7,1.3,3c0,1-0.3,1.8-0.8,2.5C168.9,112.92,168.2,113.32,167.3,113.52z M164.8,112.02h0.6
	c1.9,0,2.9-0.7,2.9-2.2c0-1.4-0.9-2.1-2.8-2.1h-0.7V112.02z M180.9,105.82l3.5,9l3.7-9.7l3.5,9.7l3.7-9h2.2l-6,14.3l-3.5-9.6
	l-3.6,9.6l-5.7-14.4h2.2L180.9,105.82L180.9,105.82z M197.9,112.52c0-1.9,0.7-3.5,2.1-4.9s3.1-2,5-2s3.6,0.7,4.9,2.1
	c1.4,1.4,2.1,3,2.1,5c0,1.9-0.7,3.6-2.1,4.9c-1.4,1.4-3.1,2-5,2c-1.7,0-3.3-0.6-4.7-1.8C198.7,116.42,197.9,114.62,197.9,112.52z
	 M199.9,112.52c0,1.5,0.5,2.7,1.5,3.7s2.1,1.4,3.5,1.4s2.6-0.5,3.6-1.5s1.5-2.2,1.5-3.6s-0.5-2.6-1.4-3.6c-1-1-2.1-1.5-3.5-1.5
	s-2.6,0.5-3.6,1.5C200.4,109.92,199.9,111.12,199.9,112.52L199.9,112.52z M219.4,113.52l4.2,5.7h-2.5l-3.9-5.5h-0.4v5.5h-2v-13.5
	h2.4c1.8,0,3.1,0.3,3.9,1c0.9,0.7,1.3,1.7,1.3,3c0,1-0.3,1.8-0.8,2.5C221,112.92,220.3,113.32,219.4,113.52z M216.9,112.02h0.6
	c1.9,0,2.9-0.7,2.9-2.2c0-1.4-0.9-2.1-2.8-2.1h-0.7V112.02z M228.2,105.82v11.6h4v1.9h-6v-13.5H228.2z M235,119.32v-13.5h2.8
	c1.4,0,2.4,0.1,3.2,0.4c0.8,0.3,1.6,0.7,2.3,1.3c1.4,1.3,2.1,2.9,2.1,5s-0.7,3.8-2.2,5c-0.7,0.6-1.5,1.1-2.3,1.3
	c-0.7,0.3-1.8,0.4-3.2,0.4H235L235,119.32L235,119.32z M237.1,117.42h0.9c0.9,0,1.7-0.1,2.3-0.3c0.6-0.2,1.2-0.5,1.6-1
	c1-0.9,1.5-2.1,1.5-3.6s-0.5-2.7-1.5-3.6c-0.9-0.8-2.2-1.2-3.9-1.2h-0.9V117.42L237.1,117.42z"/>
</svg>
