<svg xmlns="http://www.w3.org/2000/svg" width="109.7936" height="25.7936" viewBox="0 0 109.7936 25.7936"><g id="Layer_2" data-name="Layer 2"><g id="Layer_1-2" data-name="Layer 1"><circle cx="85.3968" cy="6.3968" r="2" fill="#c6e2f7" stroke="#fff" stroke-miterlimit="10" stroke-width="0.7936"/><circle cx="85.3968" cy="13.3968" r="2" fill="#c6e2f7" stroke="#fff" stroke-miterlimit="10" stroke-width="0.7936"/><circle cx="93.3968" cy="2.3968" r="2" fill="#c6e2f7" stroke="#fff" stroke-miterlimit="10" stroke-width="0.7936"/><circle cx="93.3968" cy="9.3968" r="2" fill="#c6e2f7" stroke="#fff" stroke-miterlimit="10" stroke-width="0.7936"/><circle cx="93.3968" cy="16.3968" r="2" fill="#c6e2f7" stroke="#fff" stroke-miterlimit="10" stroke-width="0.7936"/><circle cx="93.3968" cy="23.3968" r="2" fill="#c6e2f7" stroke="#fff" stroke-miterlimit="10" stroke-width="0.7936"/><circle cx="85.3968" cy="21.3968" r="2" fill="#c6e2f7" stroke="#fff" stroke-miterlimit="10" stroke-width="0.7936"/><circle cx="100.3968" cy="6.3968" r="2" fill="#c6e2f7" stroke="#fff" stroke-miterlimit="10" stroke-width="0.7936"/><circle cx="100.3968" cy="13.3968" r="2" fill="#c6e2f7" stroke="#fff" stroke-miterlimit="10" stroke-width="0.7936"/><circle cx="107.3968" cy="2.3968" r="2" fill="#c6e2f7" stroke="#fff" stroke-miterlimit="10" stroke-width="0.7936"/><circle cx="107.3968" cy="9.3968" r="2" fill="#c6e2f7" stroke="#fff" stroke-miterlimit="10" stroke-width="0.7936"/><circle cx="107.3968" cy="16.3968" r="2" fill="#c6e2f7" stroke="#fff" stroke-miterlimit="10" stroke-width="0.7936"/><circle cx="107.3968" cy="23.3968" r="2" fill="#c6e2f7" stroke="#fff" stroke-miterlimit="10" stroke-width="0.7936"/><circle cx="100.3968" cy="21.3968" r="2" fill="#c6e2f7" stroke="#fff" stroke-miterlimit="10" stroke-width="0.7936"/><circle cx="56.3968" cy="6.3968" r="2" fill="#c6e2f7" stroke="#fff" stroke-miterlimit="10" stroke-width="0.7936"/><circle cx="56.3968" cy="13.3968" r="2" fill="#c6e2f7" stroke="#fff" stroke-miterlimit="10" stroke-width="0.7936"/><circle cx="64.3968" cy="2.3968" r="2" fill="#c6e2f7" stroke="#fff" stroke-miterlimit="10" stroke-width="0.7936"/><circle cx="64.3968" cy="9.3968" r="2" fill="#c6e2f7" stroke="#fff" stroke-miterlimit="10" stroke-width="0.7936"/><circle cx="64.3968" cy="16.3968" r="2" fill="#c6e2f7" stroke="#fff" stroke-miterlimit="10" stroke-width="0.7936"/><circle cx="64.3968" cy="23.3968" r="2" fill="#c6e2f7" stroke="#fff" stroke-miterlimit="10" stroke-width="0.7936"/><circle cx="56.3968" cy="21.3968" r="2" fill="#c6e2f7" stroke="#fff" stroke-miterlimit="10" stroke-width="0.7936"/><circle cx="71.3968" cy="6.3968" r="2" fill="#c6e2f7" stroke="#fff" stroke-miterlimit="10" stroke-width="0.7936"/><circle cx="71.3968" cy="13.3968" r="2" fill="#c6e2f7" stroke="#fff" stroke-miterlimit="10" stroke-width="0.7936"/><circle cx="78.3968" cy="2.3968" r="2" fill="#c6e2f7" stroke="#fff" stroke-miterlimit="10" stroke-width="0.7936"/><circle cx="78.3968" cy="9.3968" r="2" fill="#c6e2f7" stroke="#fff" stroke-miterlimit="10" stroke-width="0.7936"/><circle cx="78.3968" cy="16.3968" r="2" fill="#c6e2f7" stroke="#fff" stroke-miterlimit="10" stroke-width="0.7936"/><circle cx="78.3968" cy="23.3968" r="2" fill="#c6e2f7" stroke="#fff" stroke-miterlimit="10" stroke-width="0.7936"/><circle cx="71.3968" cy="21.3968" r="2" fill="#c6e2f7" stroke="#fff" stroke-miterlimit="10" stroke-width="0.7936"/><circle cx="23.3968" cy="6.3968" r="2" fill="#c6e2f7" stroke="#fff" stroke-miterlimit="10" stroke-width="0.7936"/><circle cx="23.3968" cy="13.3968" r="2" fill="#c6e2f7" stroke="#fff" stroke-miterlimit="10" stroke-width="0.7936"/><circle cx="31.3968" cy="2.3968" r="2" fill="#c6e2f7" stroke="#fff" stroke-miterlimit="10" stroke-width="0.7936"/><circle cx="31.3968" cy="9.3968" r="2" fill="#c6e2f7" stroke="#fff" stroke-miterlimit="10" stroke-width="0.7936"/><circle cx="31.3968" cy="16.3968" r="2" fill="#c6e2f7" stroke="#fff" stroke-miterlimit="10" stroke-width="0.7936"/><circle cx="31.3968" cy="23.3968" r="2" fill="#c6e2f7" stroke="#fff" stroke-miterlimit="10" stroke-width="0.7936"/><circle cx="23.3968" cy="21.3968" r="2" fill="#c6e2f7" stroke="#fff" stroke-miterlimit="10" stroke-width="0.7936"/><circle cx="38.3968" cy="6.3968" r="2" fill="#c6e2f7" stroke="#fff" stroke-miterlimit="10" stroke-width="0.7936"/><circle cx="38.3968" cy="13.3968" r="2" fill="#c6e2f7" stroke="#fff" stroke-miterlimit="10" stroke-width="0.7936"/><circle cx="45.3968" cy="2.3968" r="2" fill="#c6e2f7" stroke="#fff" stroke-miterlimit="10" stroke-width="0.7936"/><circle cx="45.3968" cy="9.3968" r="2" fill="#c6e2f7" stroke="#fff" stroke-miterlimit="10" stroke-width="0.7936"/><circle cx="45.3968" cy="16.3968" r="2" fill="#c6e2f7" stroke="#fff" stroke-miterlimit="10" stroke-width="0.7936"/><circle cx="45.3968" cy="23.3968" r="2" fill="#c6e2f7" stroke="#fff" stroke-miterlimit="10" stroke-width="0.7936"/><circle cx="38.3968" cy="21.3968" r="2" fill="#c6e2f7" stroke="#fff" stroke-miterlimit="10" stroke-width="0.7936"/><circle cx="2.3968" cy="2.3968" r="2" fill="#c6e2f7" stroke="#fff" stroke-miterlimit="10" stroke-width="0.7936"/><circle cx="2.3968" cy="9.3968" r="2" fill="#c6e2f7" stroke="#fff" stroke-miterlimit="10" stroke-width="0.7936"/><circle cx="2.3968" cy="16.3968" r="2" fill="#c6e2f7" stroke="#fff" stroke-miterlimit="10" stroke-width="0.7936"/><circle cx="2.3968" cy="23.3968" r="2" fill="#c6e2f7" stroke="#fff" stroke-miterlimit="10" stroke-width="0.7936"/><circle cx="9.3968" cy="6.3968" r="2" fill="#c6e2f7" stroke="#fff" stroke-miterlimit="10" stroke-width="0.7936"/><circle cx="9.3968" cy="13.3968" r="2" fill="#c6e2f7" stroke="#fff" stroke-miterlimit="10" stroke-width="0.7936"/><circle cx="16.3968" cy="2.3968" r="2" fill="#c6e2f7" stroke="#fff" stroke-miterlimit="10" stroke-width="0.7936"/><circle cx="16.3968" cy="9.3968" r="2" fill="#c6e2f7" stroke="#fff" stroke-miterlimit="10" stroke-width="0.7936"/><circle cx="16.3968" cy="16.3968" r="2" fill="#c6e2f7" stroke="#fff" stroke-miterlimit="10" stroke-width="0.7936"/><circle cx="16.3968" cy="23.3968" r="2" fill="#c6e2f7" stroke="#fff" stroke-miterlimit="10" stroke-width="0.7936"/><circle cx="9.3968" cy="21.3968" r="2" fill="#c6e2f7" stroke="#fff" stroke-miterlimit="10" stroke-width="0.7936"/></g></g></svg>