<?xml version="1.0" encoding="utf-8"?>
<!-- Generator: Adobe Illustrator 24.2.1, SVG Export Plug-In . SVG Version: 6.00 Build 0)  -->
<svg version="1.1" id="Layer_1" xmlns="http://www.w3.org/2000/svg" xmlns:xlink="http://www.w3.org/1999/xlink" x="0px" y="0px"
	 viewBox="0 0 24.3 24.3" style="enable-background:new 0 0 24.3 24.3;" xml:space="preserve">
<circle style="fill:#FFFFFF;" cx="12.2" cy="12.2" r="12.2"/>
<path style="fill:#16467A;" d="M14.7,12.2l3.9-3.9c0.5-0.5,0.5-1.4,0-1.9l-0.6-0.6c-0.5-0.5-1.4-0.5-1.9,0l-3.9,3.9L8.3,5.7
	c-0.5-0.5-1.4-0.5-1.9,0L5.7,6.4C5.5,6.6,5.3,7,5.3,7.3s0.1,0.7,0.4,1l3.9,3.9L5.7,16c-0.3,0.3-0.4,0.6-0.4,1s0.1,0.7,0.4,1l0.6,0.6
	c0.5,0.5,1.4,0.5,1.9,0l3.9-3.9l3.9,3.9c0.3,0.3,0.6,0.4,1,0.4s0.7-0.1,1-0.4l0.6-0.6c0.5-0.5,0.5-1.4,0-1.9L14.7,12.2z"/>
</svg>
