<?xml version="1.0" encoding="utf-8"?>
<!-- Generator: Adobe Illustrator 25.1.0, SVG Export Plug-In . SVG Version: 6.00 Build 0)  -->
<svg version="1.1" id="Layer_1" xmlns="http://www.w3.org/2000/svg" xmlns:xlink="http://www.w3.org/1999/xlink" x="0px" y="0px"
	 viewBox="0 0 56.3 56.3" style="enable-background:new 0 0 56.3 56.3;" xml:space="preserve">
<path style="fill:#BD1A29;" d="M28.2,56.3C12.6,56.3,0,43.7,0,28.2C0,12.6,12.6,0,28.2,0c15.5,0,28.2,12.6,28.2,28.2
	C56.3,43.7,43.7,56.3,28.2,56.3z M28.2,3C14.3,3,3,14.3,3,28.2C3,42,14.3,53.3,28.2,53.3C42,53.3,53.3,42,53.3,28.2
	C53.3,14.3,42,3,28.2,3z M35.9,23.9l2.4-2.4c0.4-0.4,0.4-1.2,0-1.6l-7-7c-0.4-0.4-1.2-0.4-1.6,0l-2.4,2.4c-0.4,0.4-0.4,1.2,0,1.6
	l7,7C34.7,24.4,35.5,24.4,35.9,23.9z M27.7,32.2l2.4-2.4c0.4-0.4,0.4-1.2,0-1.6l-7-7c-0.4-0.4-1.2-0.4-1.6,0L19,23.5
	c-0.4,0.4-0.4,1.2,0,1.6l7,7C26.5,32.6,27.2,32.6,27.7,32.2z M41.2,33.4L33,25.2l0.2-0.2c0.4-0.4,0.4-1.2,0-1.6L27.8,18
	c-0.4-0.4-1.2-0.4-1.6,0l-2.1,2.1c-0.4,0.4-0.4,1.2,0,1.6l5.4,5.4c0.4,0.4,1.2,0.4,1.6,0l0.2-0.2l8.2,8.2c0.4,0.4,1.2,0.4,1.6,0
	C41.6,34.6,41.6,33.9,41.2,33.4z M25.2,38.2h-1v-2.5c0-0.8-0.6-1.4-1.4-1.4h-6.3c-0.8,0-1.4,0.6-1.4,1.4v2.5h-1.1
	c-0.4,0-0.7,0.3-0.7,0.7v1.4c0,0.4,0.3,0.7,0.7,0.7h11.1c0.4,0,0.7-0.3,0.7-0.7v-1.4C25.9,38.5,25.6,38.2,25.2,38.2z"/>
</svg>
