<svg width="14" height="18" viewBox="0 0 14 18" fill="none" xmlns="http://www.w3.org/2000/svg">
<path d="M12.0002 0.645813H2.00016C1.081 0.645813 0.333496 1.39415 0.333496 2.31248H13.6668C13.6668 1.39331 12.9202 0.645813 12.0002 0.645813Z" fill="#303434"/>
<path d="M0.333496 3.14581V4.81248C0.333496 5.02581 0.415163 5.23915 0.577663 5.40165L5.3335 10.1575V16.4791C5.3335 16.8158 5.53683 17.12 5.84766 17.2491C5.951 17.2916 6.05933 17.3125 6.16683 17.3125C6.3835 17.3125 6.59683 17.2275 6.756 17.0683L8.42266 15.4016C8.57933 15.245 8.66683 15.0333 8.66683 14.8125V10.1575L13.4227 5.40165C13.5852 5.23831 13.6668 5.02581 13.6668 4.81248V3.14581H0.333496Z" fill="#303434"/>
</svg>
