<?xml version="1.0" encoding="utf-8"?>
<!-- Generator: Adobe Illustrator 24.2.1, SVG Export Plug-In . SVG Version: 6.00 Build 0)  -->
<svg version="1.1" id="Layer_1" xmlns="http://www.w3.org/2000/svg" xmlns:xlink="http://www.w3.org/1999/xlink" x="0px" y="0px"
	 viewBox="0 0 14.3 14.3" style="enable-background:new 0 0 14.3 14.3;" xml:space="preserve">
<circle style="fill:none;stroke:#b9192a;stroke-miterlimit:10;" cx="7.2" cy="7.2" r="6.7"/>
<path style="fill:#b9192a;" d="M8,5.8l0,4c0,0.2,0,0.4,0.1,0.5c0.1,0.1,0.2,0.1,0.5,0.1V11l-2.8,0v-0.5h0.1c0.3,0,0.4,0,0.5-0.1
	c0.1-0.1,0.1-0.3,0.1-0.5l0-2.6c0-0.2,0-0.4-0.1-0.5S6.1,6.7,5.9,6.7H5.8l0-0.5L8,5.8z M6.4,4.2c0-0.2,0.1-0.4,0.2-0.6
	C6.8,3.5,7,3.4,7.2,3.4c0.2,0,0.4,0.1,0.6,0.2C8,3.8,8.1,4,8.1,4.2c0,0.2-0.1,0.4-0.2,0.6S7.5,5.1,7.2,5.1C7,5.1,6.8,5,6.6,4.8
	S6.4,4.4,6.4,4.2z"/>
</svg>
