<?xml version="1.0" encoding="utf-8"?>
<!-- Generator: Adobe Illustrator 25.1.0, SVG Export Plug-In . SVG Version: 6.00 Build 0)  -->
<svg version="1.1" id="Layer_1" xmlns="http://www.w3.org/2000/svg" xmlns:xlink="http://www.w3.org/1999/xlink" x="0px" y="0px"
	 viewBox="0 0 32.5 24.9" style="enable-background:new 0 0 32.5 24.9;" xml:space="preserve">
<path id="_x32_2zmDN.tif_6_" transform="translate(0 0)" style="fill:#29334B;" d="M16.5,22.2H3c-0.5,0-0.5,0-0.5,0.5v1
	c0,0.6-0.5,1.1-1.1,1.2c0,0,0,0-0.1,0c-0.7,0-1.3-0.5-1.3-1.2c-0.1-0.7-0.1-1.3,0-2V8c0.1-0.6,0.7-1.1,1.3-1.2C2,6.8,2.5,7.3,2.5,8
	c0,0,0,0.1,0,0.1v5.8c0,0.3,0.2,0.3,0.3,0.3h26.8c0.5,0,0.5,0,0.5-0.5v-1.5c0.2-0.7,0.5-1,1.2-1c0.6,0,1,0.4,1.1,1
	c0.1,1,0.1,2.1,0,3.1v8.5c-0.2,0.7-0.5,1-1.1,1c-0.6,0-1.1-0.4-1.2-1v-1.3c0-0.3-0.2-0.3-0.5-0.3H16.5z M16.5,16.9H3
	c-0.2,0-0.5,0.1-0.5,0.4c0,0,0,0.1,0,0.1v1.8c0,0.5,0,0.5,0.5,0.5H30c0.3,0,0.5-0.2,0.3-0.5v-1.8c0-0.5,0-0.5-0.5-0.5L16.5,16.9z
	 M20.2,12.9h-8.8c-0.4,0-0.7-0.2-1-0.5c-1.5-1.7-2.8-3.3-4.3-5.1C5.9,7.2,5.9,7,6,6.9c0,0,0,0,0.1-0.1c0.3-0.2,0.5-0.5,0.7-0.7
	c1.3-1,3.1-0.8,4.1,0.3c0.5,0.5,0.8,1,1.3,1.5c0.2,0.2,0.3,0.3,0.5,0.3h11.6c0.9-0.1,1.8,0.1,2.7,0.5c1.2,0.7,2,1.9,2.2,3.3
	c0,0.3-0.2,0.3-0.3,0.3C25.9,12.8,23,13,20.2,12.9L20.2,12.9z M5.4,6c-1.6,0-3-1.3-3-3s1.3-3,3-3s3,1.3,3,3c0.1,1.6-1.2,2.9-2.8,3
	C5.5,6,5.4,6,5.4,6z M4,10.1V7.6c0-0.2,0-0.3,0.2-0.3c0.2,0,0.4,0,0.5,0.2C5.8,9,7,10.5,8.3,11.9c0.2,0.3,0.5,0.5,0.7,0.8l0.2,0.2
	H4.4C4,12.9,4,12.8,4,12.6C4,11.8,4,10.9,4,10.1L4,10.1z"/>
</svg>
