<?xml version="1.0" encoding="utf-8"?>
<!-- Generator: Adobe Illustrator 24.2.1, SVG Export Plug-In . SVG Version: 6.00 Build 0)  -->
<svg version="1.1" id="Layer_1" xmlns="http://www.w3.org/2000/svg" xmlns:xlink="http://www.w3.org/1999/xlink" x="0px" y="0px"
	 viewBox="0 0 25.3 25.3" style="enable-background:new 0 0 25.3 25.3;" xml:space="preserve">
<path style="fill:#16467A;" d="M12.7,0C5.7,0,0,5.7,0,12.7s5.7,12.7,12.7,12.7s12.7-5.7,12.7-12.7S19.6,0,12.7,0z M18.7,16.9
	c0.3,0.3,0.3,0.9,0,1.2l-0.6,0.6c-0.3,0.3-0.9,0.3-1.2,0l-4.2-4.2l-4.2,4.2c-0.3,0.3-0.9,0.3-1.2,0l-0.6-0.6c-0.3-0.3-0.3-0.9,0-1.2
	l4.2-4.2L6.6,8.4c-0.3-0.3-0.3-0.9,0-1.2l0.6-0.6c0.3-0.3,0.9-0.3,1.2,0l4.2,4.2l4.2-4.2c0.3-0.3,0.9-0.3,1.2,0l0.6,0.6
	c0.3,0.3,0.3,0.9,0,1.2l-4.2,4.2L18.7,16.9z"/>
</svg>
