<svg width="20" height="20" viewBox="0 0 20 20" fill="none" xmlns="http://www.w3.org/2000/svg">
<path d="M15 1.646H5.00004C4.08087 1.646 3.33337 2.39433 3.33337 3.31266H16.6667C16.6667 2.3935 15.92 1.646 15 1.646Z" fill="#303434"/>
<path d="M3.33337 4.146V5.81266C3.33337 6.026 3.41504 6.23933 3.57754 6.40183L8.33337 11.1577V17.4793C8.33337 17.816 8.53671 18.1202 8.84754 18.2493C8.95087 18.2918 9.05921 18.3127 9.16671 18.3127C9.38337 18.3127 9.59671 18.2277 9.75587 18.0685L11.4225 16.4018C11.5792 16.2452 11.6667 16.0335 11.6667 15.8127V11.1577L16.4225 6.40183C16.585 6.2385 16.6667 6.026 16.6667 5.81266V4.146H3.33337Z" fill="#303434"/>
</svg>
