<?xml version="1.0" encoding="utf-8"?>
<!-- Generator: Adobe Illustrator 25.2.3, SVG Export Plug-In . SVG Version: 6.00 Build 0)  -->
<svg version="1.1" id="Layer_1" xmlns="http://www.w3.org/2000/svg" xmlns:xlink="http://www.w3.org/1999/xlink" x="0px" y="0px"
	 viewBox="0 0 58.6 63.1" style="enable-background:new 0 0 58.6 63.1;" xml:space="preserve">
<style type="text/css">
	.st0{fill:#AEAEAE;}
	.st1{fill:#595959;}
	.st2{fill:#F2F2F2;}
	.st3{fill:#E5E5E5;}
	.st4{fill:#C4C4C4;}
	.st5{fill:#838383;}
</style>
<path class="st0" d="M6.9,47.9l0.3-0.3l0.4-0.4L7.8,47c0.2-0.2,0.3-0.4,0.5-0.6l0.1-0.1c4.9-6.4,6.2-14.9,3.5-22.6
	c-3,0.6-6.2,0.5-9.1-0.3C6.7,29.7,5.7,37.8,0.5,43c-0.2,0.2-0.4,0.3-0.5,0.5l0,0c1,2.6,2.4,5,4.1,7.2c0.8-0.6,1.6-1.3,2.3-2l0.4-0.4
	L6.9,47.9z"/>
<path class="st1" d="M26.2,3.8c0,0.1,0.1,0.2,0.1,0.3s0.1,0.3,0.1,0.4L26.6,5l0.1,0.3C26.8,5.5,26.9,5.8,27,6v0.1
	c3.1,7.5,9.8,12.9,17.8,14.4c1-2.9,2.7-5.6,4.9-7.7C42.3,13,35.7,8.1,33.8,1c-0.1-0.2-0.1-0.5-0.2-0.7l0,0l0,0
	c-2.7-0.4-5.5-0.4-8.3-0.1c0.1,1,0.3,1.9,0.6,2.9C26.1,3.4,26.2,3.6,26.2,3.8z"/>
<path class="st2" d="M58.6,19.9c-1-2.6-2.4-5-4.1-7.2c-0.8,0.6-1.6,1.2-2.3,1.9l-0.4,0.5l-0.2,0.2l-0.3,0.3L50.9,16l-0.2,0.2
	c-0.2,0.2-0.3,0.4-0.5,0.6l-0.1,0.1c-4.9,6.5-6.3,15-3.5,22.6c3-0.6,6.2-0.5,9.1,0.3c-3.9-6.3-2.9-14.4,2.3-19.6
	C58.2,20.2,58.3,20.1,58.6,19.9L58.6,19.9L58.6,19.9z"/>
<path class="st3" d="M53.8,42.7L53.8,42.7c-0.3,0-0.6-0.1-0.8-0.1l-0.4-0.1h-0.3c-8-1-16.1,2.1-21.3,8.2c2,2.3,3.5,5.1,4.3,8
	c3.5-6.5,11-9.7,18.1-7.9l0.7,0.2l0,0c1.7-2.2,3.1-4.6,4.2-7.1c-0.9-0.4-1.8-0.7-2.8-1C54.9,42.9,54.3,42.8,53.8,42.7z"/>
<path class="st4" d="M32.2,59.5c0-0.1-0.1-0.2-0.1-0.3S32,58.9,32,58.8l-0.2-0.5L31.7,58c-0.1-0.2-0.2-0.5-0.3-0.7v-0.1
	c-3.1-7.7-9.8-13.1-17.8-14.6c-1,2.9-2.7,5.6-4.9,7.7c7.4-0.2,13.9,4.6,15.9,11.8c0.1,0.2,0.1,0.5,0.2,0.7l0,0l0,0
	c2.7,0.4,5.5,0.4,8.3,0.1c-0.1-1-0.3-1.9-0.6-2.9C32.4,59.9,32.3,59.6,32.2,59.5z"/>
<path class="st5" d="M4.7,20.6L4.7,20.6l0.8,0.1l0.4,0.1h0.3c8,1,16.1-2.1,21.3-8.2c-2-2.3-3.5-5.1-4.3-8c-3.5,6.5-11,9.7-18.1,7.8
	l-0.7-0.2l0,0c-1.7,2.2-3.1,4.6-4.2,7.1C1.1,19.7,2,20,3,20.3C3.6,20.3,4.2,20.5,4.7,20.6z"/>
</svg>
